<?xml version="1.0" standalone="no"?>
<!DOCTYPE svg PUBLIC "-//W3C//DTD SVG 1.1//EN" "http://www.w3.org/Graphics/SVG/1.1/DTD/svg11.dtd" >
<!--
2013-9-30: Created.
-->
<svg>
<metadata>
Created by iconfont
</metadata>
<defs>

<font id="iconfont" horiz-adv-x="1024" >
  <font-face
    font-family="iconfont"
    font-weight="500"
    font-stretch="normal"
    units-per-em="1024"
    ascent="896"
    descent="-128"
  />
    <missing-glyph />
    
    <glyph glyph-name="add" unicode="&#58980;" d="M853.333333 416H544V725.333333c0 17.066667-14.933333 32-32 32s-32-14.933333-32-32v-309.333333H170.666667c-17.066667 0-32-14.933333-32-32s14.933333-32 32-32h309.333333V42.666667c0-17.066667 14.933333-32 32-32s32 14.933333 32 32V352H853.333333c17.066667 0 32 14.933333 32 32s-14.933333 32-32 32z"  horiz-adv-x="1024" />

    
    <glyph glyph-name="back" unicode="&#58982;" d="M853.333333 650.666667H245.333333l93.866667 93.866666c12.8 12.8 12.8 34.133333 0 46.933334-12.8 12.8-34.133333 12.8-46.933333 0l-145.066667-145.066667c-12.8-12.8-12.8-34.133333 0-46.933333l145.066667-145.066667c6.4-6.4 14.933333-10.666667 23.466666-10.666667s17.066667 4.266667 23.466667 10.666667c12.8 12.8 12.8 34.133333 0 46.933333L256 584.533333h597.333333c6.4 0 10.666667-4.266667 10.666667-10.666666v-426.666667c0-6.4-4.266667-10.666667-10.666667-10.666667H170.666667c-17.066667 0-32-14.933333-32-32s14.933333-32 32-32h682.666666c40.533333 0 74.666667 34.133333 74.666667 74.666667V576c0 40.533333-34.133333 74.666667-74.666667 74.666667z"  horiz-adv-x="1024" />

    
    <glyph glyph-name="close" unicode="&#58984;" d="M556.8 384L832 659.2c12.8 12.8 12.8 32 0 44.8-12.8 12.8-32 12.8-44.8 0L512 428.8l-275.2 277.333333c-12.8 12.8-32 12.8-44.8 0-12.8-12.8-12.8-32 0-44.8l275.2-277.333333-277.333333-275.2c-12.8-12.8-12.8-32 0-44.8 6.4-6.4 14.933333-8.533333 23.466666-8.533333s17.066667 2.133333 23.466667 8.533333L512 339.2 787.2 64c6.4-6.4 14.933333-8.533333 23.466667-8.533333s17.066667 2.133333 23.466666 8.533333c12.8 12.8 12.8 32 0 44.8L556.8 384z"  horiz-adv-x="1024" />

    
    <glyph glyph-name="direction-down" unicode="&#58987;" d="M898.133333 384c-12.8 12.8-32 12.8-44.8 2.133333L544 96V746.666667c0 17.066667-14.933333 32-32 32s-32-14.933333-32-32v-650.666667L170.666667 386.133333c-12.8 12.8-34.133333 10.666667-44.8-2.133333-12.8-12.8-10.666667-34.133333 2.133333-44.8l362.666667-341.333333c2.133333-2.133333 6.4-4.266667 8.533333-6.4 4.266667-2.133333 6.4-2.133333 10.666667-2.133334s8.533333 0 10.666666 2.133334c4.266667 2.133333 6.4 4.266667 8.533334 6.4l362.666666 341.333333c17.066667 12.8 19.2 32 6.4 44.8z"  horiz-adv-x="1024" />

    
    <glyph glyph-name="direction-right" unicode="&#58988;" d="M904.533333 373.333333c2.133333 4.266667 2.133333 6.4 2.133334 10.666667s0 8.533333-2.133334 10.666667c-2.133333 4.266667-4.266667 6.4-6.4 8.533333l-341.333333 362.666667c-12.8 12.8-32 12.8-44.8 2.133333-12.8-12.8-12.8-32-2.133333-44.8l290.133333-309.333333H149.333333c-17.066667 0-32-14.933333-32-32s14.933333-32 32-32h650.666667L509.866667 42.666667c-12.8-12.8-10.666667-34.133333 2.133333-44.8 6.4-6.4 14.933333-8.533333 21.333333-8.533334 8.533333 0 17.066667 4.266667 23.466667 10.666667l341.333333 362.666667c2.133333 2.133333 4.266667 6.4 6.4 10.666666z"  horiz-adv-x="1024" />

    
    <glyph glyph-name="direction-up" unicode="&#58989;" d="M896 428.8l-362.666667 341.333333c-2.133333 2.133333-6.4 4.266667-8.533333 6.4-4.266667 2.133333-6.4 2.133333-10.666667 2.133334s-8.533333 0-10.666666-2.133334c-4.266667-2.133333-6.4-4.266667-8.533334-6.4l-362.666666-341.333333c-12.8-12.8-12.8-32-2.133334-44.8 12.8-12.8 32-12.8 44.8-2.133333l309.333334 290.133333V21.333333c0-17.066667 14.933333-32 32-32s32 14.933333 32 32V672L853.333333 381.866667c6.4-6.4 14.933333-8.533333 21.333334-8.533334 8.533333 0 17.066667 4.266667 23.466666 10.666667 12.8 12.8 10.666667 32-2.133333 44.8z"  horiz-adv-x="1024" />

    
    <glyph glyph-name="direction-left" unicode="&#58990;" d="M874.666667 416H224L514.133333 725.333333c12.8 12.8 10.666667 34.133333-2.133333 44.8s-32 10.666667-44.8-2.133333l-341.333333-362.666667c-2.133333-2.133333-4.266667-6.4-6.4-8.533333-2.133333-4.266667-2.133333-6.4-2.133334-10.666667s0-8.533333 2.133334-10.666666c2.133333-4.266667 4.266667-6.4 6.4-8.533334l341.333333-362.666666c6.4-6.4 14.933333-10.666667 23.466667-10.666667 8.533333 0 14.933333 2.133333 21.333333 8.533333 12.8 12.8 12.8 32 2.133333 44.8L224 352H874.666667c17.066667 0 32 14.933333 32 32s-14.933333 32-32 32z"  horiz-adv-x="1024" />

    
    <glyph glyph-name="hide" unicode="&#58995;" d="M917.333333 322.133333l-87.466666 87.466667c34.133333 32 66.133333 68.266667 91.733333 108.8 8.533333 14.933333 4.266667 34.133333-10.666667 44.8-14.933333 8.533333-34.133333 4.266667-44.8-10.666667-76.8-125.866667-209.066667-200.533333-356.266666-200.533333-145.066667 0-279.466667 74.666667-354.133334 198.4-8.533333 14.933333-29.866667 19.2-44.8 10.666667-14.933333-8.533333-19.2-29.866667-10.666666-44.8 25.6-40.533333 55.466667-76.8 91.733333-108.8l-85.333333-85.333334c-12.8-12.8-12.8-32 0-44.8 6.4-6.4 14.933333-8.533333 23.466666-8.533333s17.066667 2.133333 23.466667 8.533333l91.733333 91.733334c38.4-25.6 81.066667-46.933333 125.866667-59.733334l-34.133333-130.133333c-4.266667-17.066667 6.4-34.133333 23.466666-38.4 2.133333 0 6.4-2.133333 8.533334-2.133333 14.933333 0 27.733333 8.533333 29.866666 23.466666l36.266667 132.266667c25.6-4.266667 51.2-6.4 78.933333-6.4 27.733333 0 55.466667 2.133333 83.2 6.4l36.266667-132.266667c4.266667-14.933333 17.066667-23.466667 29.866667-23.466666 2.133333 0 6.4 0 8.533333 2.133333 17.066667 4.266667 27.733333 21.333333 23.466667 38.4L661.333333 311.466667c44.8 12.8 85.333333 34.133333 123.733334 59.733333l91.733333-91.733333c6.4-6.4 14.933333-8.533333 23.466667-8.533334s17.066667 2.133333 23.466666 8.533334c6.4 10.666667 6.4 29.866667-6.4 42.666666z"  horiz-adv-x="1024" />

    
    <glyph glyph-name="link" unicode="&#58998;" d="M861.866667 731.733333c-87.466667 87.466667-230.4 89.6-320 2.133334l-68.266667-68.266667c-12.8-12.8-12.8-32 0-44.8s32-12.8 44.8 0l68.266667 68.266667c64 61.866667 166.4 61.866667 230.4-2.133334 64-64 64-168.533333 2.133333-232.533333l-117.333333-119.466667c-34.133333-34.133333-81.066667-51.2-128-49.066666-46.933333 4.266667-91.733333 27.733333-119.466667 66.133333-10.666667 14.933333-29.866667 17.066667-44.8 6.4-14.933333-10.666667-17.066667-29.866667-6.4-44.8 40.533333-53.333333 100.266667-87.466667 166.4-91.733333h17.066667c59.733333 0 119.466667 23.466667 162.133333 68.266666l117.333333 119.466667c83.2 89.6 83.2 234.666667-4.266666 322.133333zM505.6 145.066667l-66.133333-68.266667c-64-61.866667-166.4-61.866667-230.4 2.133333-64 64-64 168.533333-2.133334 232.533334l117.333334 119.466666c34.133333 34.133333 81.066667 51.2 128 49.066667 46.933333-4.266667 91.733333-27.733333 119.466666-66.133333 10.666667-14.933333 29.866667-17.066667 44.8-6.4 14.933333 10.666667 17.066667 29.866667 6.4 44.8-40.533333 53.333333-100.266667 87.466667-166.4 91.733333-66.133333 4.266667-130.133333-19.2-177.066666-66.133333l-117.333334-119.466667c-85.333333-89.6-85.333333-234.666667 2.133334-322.133333 44.8-44.8 102.4-66.133333 162.133333-66.133334 57.6 0 115.2 21.333333 160 64l66.133333 68.266667c12.8 12.8 12.8 32 0 44.8-14.933333 10.666667-34.133333 10.666667-46.933333-2.133333z"  horiz-adv-x="1024" />

    
    <glyph glyph-name="minus" unicode="&#59002;" d="M853.333333 352H170.666667c-17.066667 0-32 14.933333-32 32s14.933333 32 32 32h682.666666c17.066667 0 32-14.933333 32-32s-14.933333-32-32-32z"  horiz-adv-x="1024" />

    
    <glyph glyph-name="navigation" unicode="&#59003;" d="M834.133333 682.666667c-6.4 12.8-17.066667 23.466667-29.866666 27.733333-12.8 4.266667-27.733333 4.266667-40.533334-2.133333L106.666667 394.666667c-14.933333-6.4-25.6-21.333333-29.866667-36.266667-6.4-27.733333 12.8-57.6 40.533333-64l249.6-53.333333 53.333334-249.6c4.266667-17.066667 14.933333-29.866667 29.866666-36.266667 6.4-4.266667 14.933333-4.266667 23.466667-4.266667 19.2 0 38.4 10.666667 49.066667 29.866667l313.6 657.066667c6.4 12.8 6.4 29.866667-2.133334 44.8zM477.866667 34.133333L426.666667 273.066667c-2.133333 12.8-12.8 21.333333-23.466667 23.466666L162.133333 349.866667l601.6 288-285.866666-603.733334z"  horiz-adv-x="1024" />

    
    <glyph glyph-name="add-bold" unicode="&#59013;" d="M874.666667 426.666667H554.666667V746.666667c0 23.466667-19.2 42.666667-42.666667 42.666666s-42.666667-19.2-42.666667-42.666666v-320H149.333333c-23.466667 0-42.666667-19.2-42.666666-42.666667s19.2-42.666667 42.666666-42.666667h320v-320c0-23.466667 19.2-42.666667 42.666667-42.666666s42.666667 19.2 42.666667 42.666666V341.333333h320c23.466667 0 42.666667 19.2 42.666666 42.666667s-19.2 42.666667-42.666666 42.666667z"  horiz-adv-x="1024" />

    
    <glyph glyph-name="arrow-left-bold" unicode="&#59014;" d="M384 384L731.733333 693.333333c17.066667 14.933333 19.2 42.666667 4.266667 59.733334-14.933333 17.066667-42.666667 19.2-59.733333 4.266666l-384-341.333333c-10.666667-8.533333-14.933333-19.2-14.933334-32s4.266667-23.466667 14.933334-32l384-341.333333c8.533333-6.4 19.2-10.666667 27.733333-10.666667 12.8 0 23.466667 4.266667 32 14.933333 14.933333 17.066667 14.933333 44.8-4.266667 59.733334L384 384z"  horiz-adv-x="1024" />

    
    <glyph glyph-name="arrow-up-bold" unicode="&#59015;" d="M904.533333 221.866667l-362.666666 362.666666c-17.066667 17.066667-42.666667 17.066667-59.733334 0l-362.666666-362.666666c-17.066667-17.066667-17.066667-42.666667 0-59.733334 17.066667-17.066667 42.666667-17.066667 59.733333 0L512 494.933333l332.8-332.8c8.533333-8.533333 19.2-12.8 29.866667-12.8s21.333333 4.266667 29.866666 12.8c17.066667 17.066667 17.066667 42.666667 0 59.733334z"  horiz-adv-x="1024" />

    
    <glyph glyph-name="close-bold" unicode="&#59016;" d="M571.733333 384l268.8 268.8c17.066667 17.066667 17.066667 42.666667 0 59.733333-17.066667 17.066667-42.666667 17.066667-59.733333 0L512 443.733333 243.2 712.533333c-17.066667 17.066667-42.666667 17.066667-59.733333 0-17.066667-17.066667-17.066667-42.666667 0-59.733333L452.266667 384 183.466667 115.2c-17.066667-17.066667-17.066667-42.666667 0-59.733333 8.533333-8.533333 19.2-12.8 29.866666-12.8s21.333333 4.266667 29.866667 12.8L512 324.266667l268.8-268.8c8.533333-8.533333 19.2-12.8 29.866667-12.8s21.333333 4.266667 29.866666 12.8c17.066667 17.066667 17.066667 42.666667 0 59.733333L571.733333 384z"  horiz-adv-x="1024" />

    
    <glyph glyph-name="arrow-down-bold" unicode="&#59017;" d="M904.533333 584.5333330000001c-17.066667 17.066667-42.666667 17.066667-59.733333 0L512 251.73333300000002 179.2 584.5333330000001c-17.066667 17.066667-42.666667 17.066667-59.733333 0-17.066667-17.066667-17.066667-42.666667 0-59.733333l362.666666-362.666667c8.533333-8.533333 19.2-12.8 29.866667-12.8s21.333333 4.266667 29.866667 12.8l362.666666 362.666667c17.066667 17.066667 17.066667 42.666667 0 59.733333z"  horiz-adv-x="1024" />

    
    <glyph glyph-name="minus-bold" unicode="&#59018;" d="M853.333333 341.333333H170.666667c-23.466667 0-42.666667 19.2-42.666667 42.666667s19.2 42.666667 42.666667 42.666667h682.666666c23.466667 0 42.666667-19.2 42.666667-42.666667s-19.2-42.666667-42.666667-42.666667z"  horiz-adv-x="1024" />

    
    <glyph glyph-name="arrow-right-bold" unicode="&#59019;" d="M731.733333 416l-384 341.333333c-17.066667 14.933333-44.8 14.933333-59.733333-4.266666-14.933333-17.066667-14.933333-44.8 4.266667-59.733334L640 384 292.266667 74.666667c-17.066667-14.933333-19.2-42.666667-4.266667-59.733334 8.533333-8.533333 19.2-14.933333 32-14.933333 10.666667 0 19.2 4.266667 27.733333 10.666667l384 341.333333c8.533333 8.533333 14.933333 19.2 14.933334 32s-4.266667 23.466667-14.933334 32z"  horiz-adv-x="1024" />

    
    <glyph glyph-name="select-bold" unicode="&#59020;" d="M883.2 648.533333c-17.066667 17.066667-44.8 17.066667-59.733333 0L409.6 230.4l-209.066667 204.8c-17.066667 17.066667-44.8 17.066667-59.733333 0-17.066667-17.066667-17.066667-44.8 0-59.733333l238.933333-234.666667c8.533333-8.533333 19.2-12.8 29.866667-12.8 10.666667 0 21.333333 4.266667 29.866667 12.8l443.733333 448c17.066667 17.066667 17.066667 42.666667 0 59.733333z"  horiz-adv-x="1024" />

    
    <glyph glyph-name="arrow-up-filling" unicode="&#59021;" d="M541.866667 610.133333l345.6-345.6c17.066667-17.066667 17.066667-42.666667 0-59.733333-8.533333-8.533333-19.2-12.8-29.866667-12.8H168.533333c-23.466667 0-42.666667 19.2-42.666666 42.666667 0 10.666667 4.266667 21.333333 12.8 29.866666l343.466666 345.6c17.066667 17.066667 42.666667 17.066667 59.733334 0z"  horiz-adv-x="1024" />

    
    <glyph glyph-name="arrow-down-filling" unicode="&#59022;" d="M482.133333 157.866667L136.533333 503.466667c-17.066667 17.066667-17.066667 42.666667 0 59.733333 8.533333 8.533333 19.2 12.8 29.866667 12.8h689.066667c23.466667 0 42.666667-19.2 42.666666-42.666667 0-10.666667-4.266667-21.333333-12.8-29.866666L541.866667 157.866667c-17.066667-17.066667-42.666667-17.066667-59.733334 0z"  horiz-adv-x="1024" />

    
    <glyph glyph-name="arrow-left-filling" unicode="&#59023;" d="M268.8 416L633.6 746.666667c17.066667 14.933333 44.8 14.933333 59.733333-2.133334 6.4-8.533333 10.666667-19.2 10.666667-29.866666v-661.333334c0-23.466667-19.2-42.666667-42.666667-42.666666-10.666667 0-21.333333 4.266667-27.733333 10.666666l-362.666667 330.666667c-17.066667 14.933333-19.2 42.666667-2.133333 59.733333-2.133333 2.133333 0 2.133333 0 4.266667z"  horiz-adv-x="1024" />

    
    <glyph glyph-name="arrow-right-filling" unicode="&#59024;" d="M755.2 352L390.4 21.333333c-17.066667-14.933333-44.8-14.933333-59.733333 2.133334-6.4 8.533333-10.666667 19.2-10.666667 29.866666v661.333334c0 23.466667 19.2 42.666667 42.666667 42.666666 10.666667 0 21.333333-4.266667 27.733333-10.666666l362.666667-330.666667c17.066667-14.933333 19.2-42.666667 2.133333-59.733333 2.133333-2.133333 0-2.133333 0-4.266667z"  horiz-adv-x="1024" />

    
    <glyph glyph-name="meh-filling" unicode="&#59025;" d="M512 821.333333c241.066667 0 437.333333-196.266667 437.333333-437.333333S753.066667-53.333333 512-53.333333 74.666667 142.933333 74.666667 384 270.933333 821.333333 512 821.333333z m-187.733333-576h-2.133334c-17.066667-2.133333-29.866667-14.933333-29.866666-32s14.933333-32 32-32h375.466666c17.066667 2.133333 29.866667 14.933333 29.866667 32s-14.933333 32-32 32H324.266667zM362.666667 533.333333c-23.466667 0-42.666667-19.2-42.666667-42.666666v-66.133334c2.133333-21.333333 19.2-40.533333 42.666667-40.533333s42.666667 19.2 42.666666 42.666667v66.133333c-2.133333 23.466667-19.2 40.533333-42.666666 40.533333z m298.666666 0c-23.466667 0-42.666667-19.2-42.666666-42.666666v-66.133334c2.133333-21.333333 19.2-40.533333 42.666666-40.533333s42.666667 19.2 42.666667 42.666667v66.133333c-2.133333 23.466667-19.2 40.533333-42.666667 40.533333z"  horiz-adv-x="1024" />

    
    <glyph glyph-name="cry-filling" unicode="&#59026;" d="M512 821.333333c241.066667 0 437.333333-196.266667 437.333333-437.333333S753.066667-53.333333 512-53.333333 74.666667 142.933333 74.666667 384 270.933333 821.333333 512 821.333333zM512 298.666667c-81.066667 0-151.466667-36.266667-211.2-106.666667-10.666667-12.8-8.533333-34.133333 4.266667-44.8s34.133333-8.533333 44.8 4.266667c46.933333 57.6 100.266667 85.333333 162.133333 85.333333s115.2-27.733333 162.133333-85.333333c10.666667-12.8 32-14.933333 44.8-4.266667 12.8 10.666667 14.933333 32 4.266667 44.8-59.733333 70.4-130.133333 106.666667-211.2 106.666667z m-149.333333 234.666666c-23.466667 0-42.666667-19.2-42.666667-42.666666v-66.133334c2.133333-21.333333 19.2-40.533333 42.666667-40.533333s42.666667 19.2 42.666666 42.666667v66.133333c-2.133333 23.466667-19.2 40.533333-42.666666 40.533333z m298.666666 0c-23.466667 0-42.666667-19.2-42.666666-42.666666v-66.133334c2.133333-21.333333 19.2-40.533333 42.666666-40.533333s42.666667 19.2 42.666667 42.666667v66.133333c-2.133333 23.466667-19.2 40.533333-42.666667 40.533333z"  horiz-adv-x="1024" />

    
    <glyph glyph-name="banquan" unicode="&#59787;" d="M512 800c229.76 0 416-186.24 416-416S741.76-32 512-32 96 154.24 96 384 282.24 800 512 800z m0-64C317.589333 736 160 578.410667 160 384S317.589333 32 512 32 864 189.589333 864 384 706.410667 736 512 736z m10.666667-170.666667c51.882667 0 100.522667-20.736 136.234666-56.704l4.586667-4.778666-46.933333-43.52a128 128 0 1 1-4.096-178.24l4.096 4.245333 46.933333-43.52A192 192 0 1 0 522.666667 565.333333z"  horiz-adv-x="1024" />

    
    <glyph glyph-name="anquanyinsi" unicode="&#59788;" d="M512 824.725333l373.333333-176.362666v-302.698667c0-162.048-133.034667-332.224-344.682666-392.469333l-8.853334-2.453334-19.797333-5.12-20.032 5.184C282.026667 6.954667 146.730667 171.904 138.986667 332.970667l-0.256 6.890666-0.064 308.48L512 824.746667z m-0.021333-70.784l-309.333334-146.112 0.085334-267.136c3.285333-129.6 112.789333-269.354667 288.341333-323.072l8.533333-2.538666 8.661334-2.389334 3.690666-0.96 3.541334 0.896c183.104 48.981333 298.581333 189.141333 305.493333 320.554667l0.256 6.250667 0.085333 6.229333V607.829333L511.978667 753.941333z m104.704-237.141333l45.248-45.248-203.648-203.648-143.296 143.296 45.248 45.248 98.026666-98.048 158.421334 158.4z"  horiz-adv-x="1024" />

    
    <glyph glyph-name="dicengjiagou" unicode="&#59789;" d="M849.066667 251.221333l64.32-35.754666-397.482667-226.794667L111.530667 215.466667l64.789333 35.754666 339.562667-188.672L849.066667 251.221333z m0 170.666667l64.32-35.754667-397.482667-226.794666L111.530667 386.133333l64.789333 35.754667 339.562667-188.672L849.066667 421.888zM515.904 785.493333L922.517333 556.8l-406.613333-228.714667L109.290667 556.8l406.613333 228.714667z m0-73.429333L239.829333 556.8l276.074667-155.264 276.053333 155.264-276.053333 155.285333z"  horiz-adv-x="1024" />

    
    <glyph glyph-name="cangchucangku" unicode="&#59790;" d="M512 773.824l423.509333-266.752-34.112-54.144-58.752 37.013333L842.666667-10.666667h-661.333334l-0.021333 500.608-58.709333-37.013333-34.112 54.144L512 773.824z m0-75.648l-266.688-167.936L245.333333 53.333333h533.333334l-0.021334 476.928L512 698.176z m150.4-454.592v-64H363.306667v64H662.4z m0 170.666667v-64H363.306667v64H662.4z"  horiz-adv-x="1024" />

    
    <glyph glyph-name="bingtutubiao" unicode="&#59791;" d="M512 778.666667c229.76 0 416-186.24 416-416S741.76-53.333333 512-53.333333 96 132.906667 96 362.666667 282.24 778.666667 512 778.666667z m-32-65.429334c-179.413333-16.170667-320-166.954667-320-350.570666 0-194.410667 157.589333-352 352-352 85.674667 0 164.202667 30.613333 225.237333 81.493333L498.752 330.666667H480V713.237333z m302.506667-575.786666a350.421333 350.421333 0 0 1 80.064 193.216H589.226667l193.28-193.237334zM544 713.216V394.666667h318.570667C847.36 563.498667 712.874667 698.026667 544 713.216z"  horiz-adv-x="1024" />

    
    <glyph glyph-name="chufang" unicode="&#59792;" d="M714.666667 778.666667v-64h170.666666v-704h-746.666666v704h170.666666v64h405.333334z m-405.333334-128h-106.666666v-576h618.666666v576h-106.666666v-64h-405.333334v64z m234.666667-128l-0.021333-160H704v-64h-160.021333l0.021333-160h-64l-0.021333 160H320v64h159.978667l0.021333 160h64z m106.666667 192h-277.333334v-64h277.333334v64z"  horiz-adv-x="1024" />

    
    <glyph glyph-name="chayan" unicode="&#59793;" d="M640 416a160 160 0 0 0 133.376-248.405333l113.216-112.938667-45.184-45.312-113.344 113.066667A160 160 0 1 0 640 416zM224 277.333333v-181.333333H405.333333v-64H160V277.333333h64zM640 352a96 96 0 1 1 0-192 96 96 0 0 1 0 192z m-234.666667 384v-64h-181.333333V490.666667h-64V736H405.333333z m458.666667 0V490.666667h-64v181.333333H618.666667v64h245.333333z"  horiz-adv-x="1024" />

    
    <glyph glyph-name="erweima" unicode="&#59794;" d="M874.666667 342.122667V149.333333h-192v128.021334h-64v-258.986667h-64V341.333333h192v-127.978666h64v128.768h64zM469.333333 341.333333v-320H149.333333V341.333333h320z m405.333334-256v-64h-192v64h192z m-469.333334 192h-192v-192h192v192z m-64-64v-64h-64v64h64z m128 533.333334v-320H149.333333V746.666667h320z m405.333334 0v-320H554.666667V746.666667h320z m-469.333334-64h-192v-192h192v192z m405.333334 0h-192v-192h192v192z m-469.333334-64v-64h-64v64h64z m405.333334 0v-64h-64v64h64z"  horiz-adv-x="1024" />

    
    <glyph glyph-name="fapiao" unicode="&#59795;" d="M926.421333 738.88v-341.333333H797.013333l0.021334-404.010667-156.266667 77.376-132.138667-66.773333-132.138666 66.773333-155.456-76.8-0.021334 403.434667H94.421333v341.333333h832z m-193.408-202.645333h-448v-439.125334l91.797334 45.333334 131.818666-66.56 131.882667 66.56 92.501333-45.781334V536.234667z m-96.064-244.202667v-64h-256v64h256z m0 147.050667v-64h-256v64h256z m225.472 235.818666h-704v-213.333333h62.592l0.021334 138.666667h576l-0.021334-138.666667h65.408v213.333333z"  horiz-adv-x="1024" />

    
    <glyph glyph-name="fenbushi" unicode="&#59796;" d="M744.277333 394.282667l179.797334-103.808v-207.616l-179.797334-103.808-179.797333 103.808v207.616l179.797333 103.808z m-461.866666 0l179.797333-103.808v-207.616l-179.818667-103.808-179.797333 103.808v207.616l179.797333 103.808z m461.866666-73.898667l-115.818666-66.858667v-133.696l115.818666-66.858666 115.797334 66.858666v133.696l-115.797334 66.858667z m-461.888 0l-115.797333-66.858667v-133.696l115.797333-66.858666 115.797334 66.858666v133.696l-115.797334 66.858667zM513.344 794.282667l179.797333-103.808v-207.616l-179.797333-103.808-179.797333 103.808V690.474667l179.797333 103.808z m-0.021333-73.898667l-115.797334-66.858667v-133.696l115.797334-66.858666 115.797333 66.858666v133.696l-115.797333 66.858667z"  horiz-adv-x="1024" />

    
    <glyph glyph-name="cunchu" unicode="&#59797;" d="M670.442667 757.333333L885.333333 542.506667V10.666667h-725.333333v746.666666h510.442667zM309.333333 693.397333l-85.333333-0.021333V74.666667h85.333333v234.666666h426.666667v-234.666666h85.333333V515.968l-177.408 177.386667H608V522.666667h-298.666667V693.376z m362.666667-448.042666h-298.666667v-170.666667h298.666667v170.666667zM597.802667 192v-64h-156.330667v64h156.330667zM544 693.333333h-170.666667v-106.666666h170.666667v106.666666z"  horiz-adv-x="1024" />

    
    <glyph glyph-name="dingdan" unicode="&#59798;" d="M714.666667 778.666667v-64h170.666666v-704h-746.666666v704h170.666666v64h405.333334z m-405.333334-128h-106.666666v-576h618.666666v576h-106.666666v-64h-405.333334v64zM704 277.333333v-64H320v64h384z m0 192v-64H320v64h384zM650.666667 714.666667h-277.333334v-64h277.333334v64z"  horiz-adv-x="1024" />

    
    <glyph glyph-name="fuwuqi" unicode="&#59799;" d="M864 757.333333v-768h-704v768h704z m-64-533.333333h-576v-170.666667h576v170.666667zM704 170.666667v-64h-128v64h128z m96 288h-576v-170.666667h576v170.666667zM704 405.333333v-64h-128v64h128z m96 288h-576v-170.666666h576v170.666666zM704 640v-64h-128v64h128z"  horiz-adv-x="1024" />

    
    <glyph glyph-name="fenzhi" unicode="&#59800;" d="M650.666667 778.666667v-256H554.666667v-106.666667h288v-170.666667h85.333333v-234.666666h-234.666667v234.666666h85.333334v106.666667h-512v-106.666667h85.333333v-234.666666h-234.666667v234.666666h85.333334v170.666667H490.666667v106.666667h-96v256h256z m-362.666667-597.333334h-106.666667v-106.666666h106.666667v106.666666z m576 0h-106.666667v-106.666666h106.666667v106.666666z m-277.333333 533.333334h-128v-128h128v128z"  horiz-adv-x="1024" />

    
    <glyph glyph-name="fengfuduoyuan" unicode="&#59801;" d="M433.066667 116.053333a138.666667 138.666667 0 1 0-167.338667 165.056V485.333333H169.685333v256h256v-92.778666h202.602667a138.709333 138.709333 0 0 0 131.52 114.026666l4.970667 0.085334a138.666667 138.666667 0 0 0 33.450666-273.28l-0.021333-215.232h94.570667v-256h-256v97.92h-203.690667z m-135.381334 104.746667a74.666667 74.666667 0 1 1 0-149.333333 74.666667 74.666667 0 0 1 0 149.333333z m531.093334-10.645333h-128v-128h128v128z m-196.970667 374.4h-206.122667v-99.221334h-95.957333v-204.245333a138.88 138.88 0 0 0 102.442667-101.013333h204.608v94.08h97.429333V488.704a138.901333 138.901333 0 0 0-102.4 95.829333z m132.970667 114.112a74.666667 74.666667 0 1 1 0-149.333334 74.666667 74.666667 0 0 1 0 149.333334z m-403.093334-21.333334h-128v-128h128v128z"  horiz-adv-x="1024" />

    
    <glyph glyph-name="gongchang" unicode="&#59802;" d="M522.666667 608v-149.333333h362.666666v-469.333334h-746.666666v618.666667h384z m-64-64h-256v-490.666667h618.666666v341.333334h-362.666666v149.333333zM746.666667 192v-64h-64v64h64z m-149.333334 0v-64h-64v64h64z m149.333334 128v-64h-64v64h64z m-149.333334 0v-64h-64v64h64z m-213.333333 138.410667v-64h-106.666667v64h106.666667z m20.288 317.056c42.496 8.042667 68.010667 3.669333 115.584-19.882667l16.917333-8.490667 9.109334-4.266666c19.626667-8.917333 31.466667-11.477333 46.613333-10.176l4.202667 0.426666 7.210666 1.109334 3.882667 0.682666a106.474667 106.474667 0 0 1 63.872 38.826667l3.328 4.416 52.053333-37.248-3.925333-5.290667a170.517333 170.517333 0 0 0-103.466667-63.573333c-42.496-8.021333-68.053333-3.648-115.605333 19.904l-16.917333 8.469333c-27.157333 13.248-40.149333 16.384-59.456 14.037334l-3.946667-0.533334-7.552-1.301333a106.602667 106.602667 0 0 1-63.914667-38.826667l-3.328-4.394666-52.032 37.290666 3.946667 5.269334A170.624 170.624 0 0 0 404.266667 775.466667z"  horiz-adv-x="1024" />

    
    <glyph glyph-name="hetong" unicode="&#59803;" d="M864 778.666667l0.021333-474.752A223.594667 223.594667 0 0 0 949.333333 128c0-123.712-100.288-224-224-224-61.013333 0-116.352 24.405333-156.757333 64H160v810.666667h704z m-138.666667-490.666667a160 160 0 1 1 0-320 160 160 0 0 1 0 320z m74.666667 426.666667h-576v-682.666667h298.88A223.146667 223.146667 0 0 0 501.333333 128c0 123.712 100.288 224 224 224 26.176 0 51.306667-4.48 74.666667-12.757333V714.666667zM725.333333 234.666667l31.36-63.509334 70.08-10.197333-50.709333-49.450667 11.946667-69.802666L725.333333 74.666667l-62.698666-32.96 11.968 69.802666-50.709334 49.450667 70.101334 10.197333L725.333333 234.666667z m-256 85.333333v-64h-149.333333v64h149.333333z m234.666667 149.333333v-64H320v64h384z m0 149.333334v-64H320v64h384z"  horiz-adv-x="1024" />

    
    <glyph glyph-name="haiguangangkou" unicode="&#59804;" d="M509.824 778.666667a202.666667 202.666667 0 0 0 202.666667-202.666667c0-99.84-72.213333-182.826667-167.253334-199.594667l-0.042666-110.613333h105.792v-64h-105.792v-122.837333a351.701333 351.701333 0 0 1 237.866666 125.824l-58.944 35.434666 167.744 92.8-3.178666-191.68-50.197334 30.165334a415.701333 415.701333 0 0 0-293.269333-156.778667v-100.394667h-64v100.202667a415.701333 415.701333 0 0 0-297.408 159.168L129.92 141.333333l-3.157333 191.68 167.744-92.8-55.381334-33.28a351.701333 351.701333 0 0 1 242.048-128.192V201.813333h-107.456v64h107.456v109.546667c-96.512 13.653333-171.157333 95.274667-173.952 194.901333l-0.085333 5.76a202.666667 202.666667 0 0 0 202.666667 202.666667z m0-64a138.666667 138.666667 0 1 1 0-277.333334 138.666667 138.666667 0 0 1 0 277.333334z"  horiz-adv-x="1024" />

    
    <glyph glyph-name="gongyi" unicode="&#59805;" d="M150.058667 641.621333l-1.493334-1.493333a196.266667 196.266667 0 0 1 0-277.568L522.666667-11.562667l374.101333 374.122667a196.266667 196.266667 0 0 1 3.968 273.493333l-5.461333 5.568-4.096 3.968a196.266667 196.266667 0 0 1-273.493334-3.968L522.666667 546.602667l-95.018667 95.018666a196.266667 196.266667 0 0 1-277.546667 0z m43.754666-46.762666l1.493334 1.493333a132.266667 132.266667 0 0 0 187.072 0l140.266666-140.245333 140.309334 140.266666a132.266667 132.266667 0 0 0 187.050666 0l4.885334-5.013333a132.266667 132.266667 0 0 0-3.370667-183.552L522.645333 78.976 193.813333 407.808a132.266667 132.266667 0 0 0 0 187.050667z"  horiz-adv-x="1024" />

    
    <glyph glyph-name="haxi" unicode="&#59806;" d="M885.333333 736v-768h-768v768h768z m-64-64h-640v-640h640v640z m-234.624-92.928l63.317334-9.216-12.864-88.277333h57.898666v-64h-67.242666l-15.552-106.666667h82.794666v-64h-92.117333l-15.104-103.744-63.338667 9.216 13.781334 94.528h-106.005334l-15.104-103.744-63.338666 9.216 13.781333 94.528h-56.554667v64h65.877334l15.552 106.666667h-81.429334v64h90.752l14.229334 97.493333 63.317333-9.216-12.864-88.277333h105.984l14.229333 97.493333z m-39.104-268.16l15.552 106.666667h-106.005333l-15.552-106.666667h106.005333z"  horiz-adv-x="1024" />

    
    <glyph glyph-name="jishufuwu" unicode="&#59807;" d="M768.554667 71.509333v-64H258.666667v64h509.888zM906.666667 714.666667v-533.333334h-789.333334v533.333334h789.333334z m-64-64h-661.333334v-405.333334h661.333334v405.333334z m-432.384-74.453334l45.269333-45.226666-82.986667-82.986667 82.986667-82.986667-45.269333-45.226666-128.213334 128.213333 128.213334 128.213333z m203.434666 0l128.213334-128.213333-128.213334-128.213333-45.269333 45.226666 82.986667 82.986667-82.986667 82.986667 45.269333 45.226666z"  horiz-adv-x="1024" />

    
    <glyph glyph-name="jiangben" unicode="&#59808;" d="M928 736v-704h-832v704h832z m-64-230.357333h-704V96h704V505.642667z m-438.613333-63.658667l45.226666-45.269333L372.586667 298.666667l98.069333-98.048-45.269333-45.269334L282.069333 298.666667l143.296 143.317333z m194.56 0L763.285333 298.666667l-143.296-143.317334-45.269333 45.269334L672.768 298.666667l-98.069333 98.048 45.269333 45.269333zM864 672h-704v-102.357333h704V672z"  horiz-adv-x="1024" />

    
    <glyph glyph-name="jiekoupeizhi" unicode="&#59809;" d="M341.333333 234.666667a117.376 117.376 0 0 0 112.917334-85.333334H875.093333v-64H454.250667a117.376 117.376 0 0 0-225.834667 0H149.76v64h78.656A117.376 117.376 0 0 0 341.333333 234.666667z m0-64a53.333333 53.333333 0 1 1 0-106.666667 53.333333 53.333333 0 0 1 0 106.666667z m341.333334 320a117.376 117.376 0 0 0 112.917333-85.333334h79.509333v-64h-79.509333a117.376 117.376 0 0 0-225.834667 0H149.76v64h419.989333A117.376 117.376 0 0 0 682.666667 490.666667z m0-64a53.333333 53.333333 0 1 1 0-106.666667 53.333333 53.333333 0 0 1 0 106.666667zM341.333333 746.666667a117.376 117.376 0 0 0 112.917334-85.333334H875.093333v-64H454.250667a117.376 117.376 0 0 0-225.834667 0H149.76v64h78.656A117.376 117.376 0 0 0 341.333333 746.666667z m0-64a53.333333 53.333333 0 1 1 0-106.666667 53.333333 53.333333 0 0 1 0 106.666667z"  horiz-adv-x="1024" />

    
    <glyph glyph-name="jianguanfengkong" unicode="&#59810;" d="M533.333333 833.813333l373.333334-176.362666v-302.698667c0-162.048-133.034667-332.224-344.682667-392.469333l-8.853333-2.453334-19.797334-5.12-20.032 5.184C303.36 16.042667 168.064 180.992 160.32 342.058667l-0.256 6.890666-0.064 308.48L533.333333 833.834667z m-0.021333-70.784l-309.333333-146.112 0.085333-267.136c3.285333-129.6 112.789333-269.333333 288.341333-323.072l8.533334-2.538666 8.661333-2.389334 3.690667-0.96 3.541333 0.896c183.104 48.981333 298.581333 189.141333 305.493333 320.554667l0.256 6.250667 0.085334 6.229333V616.917333L533.312 763.029333zM498.410667 569.6a138.922667 138.922667 0 0 0 116.16-215.146667l83.242666-83.242666-45.269333-45.248-84.48 84.48A138.922667 138.922667 0 1 0 498.410667 569.6z m0-64a74.922667 74.922667 0 1 1 0-149.845333 74.922667 74.922667 0 0 1 0 149.845333z"  horiz-adv-x="1024" />

    
    <glyph glyph-name="jingquezhunque" unicode="&#59811;" d="M554.666667 789.333333v-96h288v-299.221333h107.242666v-64h-107.264L842.666667 53.333333H554.666667v-118.464h-64V53.333333H202.666667V330.112H95.402667v64H202.666667L202.666667 693.333333H490.666667V789.333333h64z m-64-160H266.666667v-235.221333h106.389333v-64h-106.410667L266.666667 117.333333H490.666667v95.146667h64v-95.146667h224v212.778667h-106.389334v64H778.666667L778.666667 629.333333H554.666667v-117.610666h-64V629.333333z"  horiz-adv-x="1024" />

    
    <glyph glyph-name="kuaisugaoxiao" unicode="&#59812;" d="M470.229333 446.890667l64-0.106667L533.333333-53.397333l-64 0.128 0.896 500.16z m32.213334 388.266666l190.186666-195.008v-156.48l195.562667-195.562666V147.2h-195.946667v-90.986667h-64v118.741334h0.384V614.122667l-126.186666 129.386666-126.165334-129.365333 0.917334-466.133333h-0.298667v-91.797334h-64v91.797334H117.333333v140.096l195.2 195.221333-0.298666 156.8 190.208 195.029333z m190.186666-442.005333V211.2h131.562667v50.389333l-131.562667 131.562667z m-379.925333-0.170667L181.333333 261.610667v-49.6h131.733334l-0.362667 180.970666z"  horiz-adv-x="1024" />

    
    <glyph glyph-name="kaifang" unicode="&#59813;" d="M777.6 293.333333a133.333333 133.333333 0 1 0-67.370667-248.426666 354.602667 354.602667 0 0 0-214.272-58.026667 356.010667 356.010667 0 0 0-108.778666 22.976l-9.365334 3.754667 24.576 59.093333c30.506667-12.693333 63.146667-20.138667 96.917334-21.909333a290.901333 290.901333 0 0 1 164.138666 40.277333 133.333333 133.333333 0 0 0 114.133334 202.24zM320.96 641.514667l34.709333-53.76a291.776 291.776 0 0 1-133.546666-230.4 293.397333 293.397333 0 0 1 4.010666-66.282667 133.333333 133.333333 0 1 0-59.669333-27.690667 355.733333 355.733333 0 0 0-8.234667 97.322667 355.712 355.712 0 0 0 156.117334 276.437333l6.613333 4.373334zM777.6 229.333333a69.333333 69.333333 0 1 1 0-138.666666 69.333333 69.333333 0 0 1 0 138.666666z m-526.933333 0a69.333333 69.333333 0 1 1 0-138.666666 69.333333 69.333333 0 0 1 0 138.666666zM514.133333 800a133.333333 133.333333 0 0 0 133.162667-126.634667 356.437333 356.437333 0 0 0 222.570667-333.781333l-0.149334-7.509333-63.957333 2.005333a292.48 292.48 0 0 1-171.264 275.178667A133.333333 133.333333 0 1 0 514.133333 800z m0-64a69.333333 69.333333 0 1 1 0-138.666667 69.333333 69.333333 0 0 1 0 138.666667z"  horiz-adv-x="1024" />

    
    <glyph glyph-name="lianjie" unicode="&#59814;" d="M629.333333 693.333333v-213.333333h277.333334v-448h-512v213.333333h-277.333334v448h512z m213.333334-277.333333h-213.333334v-170.666667h-170.666666v-149.333333h384v320z m-277.333334 213.333333h-384v-320h213.333334v170.666667h170.666666v149.333333z m0-213.333333h-106.666666v-106.666667h106.666666v106.666667z"  horiz-adv-x="1024" />

    
    <glyph glyph-name="linghuokuozhan" unicode="&#59815;" d="M417.322667 266.666667l85.333333-85.333334H672v-213.333333h-213.333333v166.826667l-67.861334 67.861333L128 202.666667v64h289.322667z m190.677333-149.333334h-85.333333v-85.333333h85.333333v85.333333z m341.333333 362.666667v-213.333333h-213.333333V341.333333H128v64h608v74.666667h213.333333z m-64-64h-85.333333v-85.333333h85.333333v85.333333z m-213.333333 362.666667v-213.333334h-172.8l-81.877333-81.92H128v64l262.805333 0.021334 67.861334 67.861333V778.666667h213.333333z m-64-64h-85.333333v-85.333334h85.333333v85.333334z"  horiz-adv-x="1024" />

    
    <glyph glyph-name="maijiagouwuche" unicode="&#59816;" d="M384 64v-85.333333h-85.333333v85.333333h85.333333z m405.333333 0v-85.333333h-85.333333v85.333333h85.333333zM240.32 710.997333l24.149333-140.928h633.173334L835.285333 149.333333h-563.626666l-85.333334 497.685334H94.485333v64h145.834667z m583.104-204.928H275.434667L325.632 213.333333h454.464l43.328 292.736z"  horiz-adv-x="1024" />

    
    <glyph glyph-name="liuzhuan" unicode="&#59817;" d="M874.666667 406.122667v-316.885334l-605.013334 0.021334 95.445334-95.424-45.248-45.269334-171.882667 171.904 171.797333 172.949334 45.418667-45.098667-94.442667-95.061333L810.666667 153.237333V406.122667h64zM726.613333 790.698667l171.904-171.882667-171.818666-172.949333-45.397334 45.098666 95.061334 95.722667H245.333333v-252.885333h-64V650.666667l594.816 0.021333-94.784 94.762667 45.269334 45.248z"  horiz-adv-x="1024" />

    
    <glyph glyph-name="lianmenglian" unicode="&#59818;" d="M522.666667 736a106.666667 106.666667 0 0 0 32-208.448v-115.264a138.730667 138.730667 0 0 0 100.885333-174.72l99.84-57.6a106.709333 106.709333 0 0 0 164.48-131.968 106.666667 106.666667 0 0 0-196.522667 76.501333l-99.84 57.642667A138.282667 138.282667 0 0 0 522.666667 138.666667a138.282667 138.282667 0 0 0-100.864 43.52l-99.84-57.664A106.709333 106.709333 0 0 0 125.44 48a106.666667 106.666667 0 0 0 164.522667 131.946667l99.84 57.621333A138.730667 138.730667 0 0 0 490.666667 412.288l-0.021334 115.264A106.709333 106.709333 0 0 0 522.666667 736z m326.186666-597.717333a42.666667 42.666667 0 1 1-42.666666-73.898667 42.666667 42.666667 0 0 1 42.666666 73.898667z m-594.069333-15.616a42.666667 42.666667 0 1 1-73.898667-42.666667 42.666667 42.666667 0 0 1 73.898667 42.666667zM522.666667 352a74.666667 74.666667 0 1 1 0-149.333333 74.666667 74.666667 0 0 1 0 149.333333z m0 320a42.666667 42.666667 0 1 1 0-85.333333 42.666667 42.666667 0 0 1 0 85.333333z"  horiz-adv-x="1024" />

    
    <glyph glyph-name="maijiadianpu" unicode="&#59819;" d="M245.333333 362.666667v-288h512V362.666667h64v-352h-640V362.666667h64zM834.624 756.949333l45.077333-150.869333a149.333333 149.333333 0 0 0-255.722666-139.52l-3.669334 4.330667L618.666667 472.96l-1.642667-2.090667a149.248 149.248 0 0 0-104.533333-54.485333l-6.016-0.32-5.141334-0.085333a149.12 149.12 0 0 0-112.021333 50.56l-3.669333 4.330666L384 472.96l-1.642667-2.090667a149.248 149.248 0 0 0-104.533333-54.485333l-6.016-0.32-5.141333-0.085333a149.333333 149.333333 0 0 0-145.301334 183.808l1.792 6.890666 45.909334 150.250667h665.557333z m-47.68-63.978666H216.426667L184.533333 588.629333a84.693333 84.693333 0 0 1-2.389333-11.456l-0.597333-5.888-0.213334-5.952a85.333333 85.333333 0 0 1 169.813334-12.16l0.512 4.352 2.624 29.12h59.434666l2.624-29.12a85.333333 85.333333 0 0 1 169.472-4.330666l0.512 4.330666 2.624 29.12h59.434667l2.624-29.12a85.333333 85.333333 0 1 1 168.32 26.346667l-1.066667 4.330667-31.317333 104.768z"  horiz-adv-x="1024" />

    
    <glyph glyph-name="guanli" unicode="&#59820;" d="M430.08 761.450667l9.664-25.216A65.984 65.984 0 0 1 501.333333 693.653333a66.069333 66.069333 0 0 1 60.010667 38.869334l1.6 3.754666 9.706667 25.173334 26.154666-6.656c32.789333-8.341333 64.170667-20.842667 93.610667-37.162667l9.749333-5.589333 23.317334-13.781334-11.029334-24.746666a66.005333 66.005333 0 0 1 13.482667-73.642667 65.770667 65.770667 0 0 1 69.632-15.104l3.968 1.621333 24.704 10.986667 13.781333-23.253333a391.253333 391.253333 0 0 0 39.829334-92.437334l2.944-10.88 6.677333-26.197333-25.237333-9.685333a66.026667 66.026667 0 0 1-42.453334-57.493334l-0.128-4.096 0.128-4.096a65.962667 65.962667 0 0 1 38.485334-55.829333l3.968-1.664 25.237333-9.685333-6.677333-26.197334a389.205333 389.205333 0 0 0-37.269334-93.653333l-5.610666-9.706667L826.133333 149.333333l-24.64 10.922667a66.154667 66.154667 0 0 1-73.664-13.504 65.898667 65.898667 0 0 1-15.061333-69.674667l1.621333-3.968 10.986667-24.704-23.253333-13.781333a391.317333 391.317333 0 0 0-92.437334-39.829333l-10.88-2.944-26.197333-6.677334-9.685333 25.237334a65.984 65.984 0 0 1-61.589334 42.581333 66.069333 66.069333 0 0 1-60.010666-38.869333l-1.6-3.754667-9.706667-25.173333-26.154667 6.656a392.853333 392.853333 0 0 0-93.632 37.162666l-9.728 5.589334-23.317333 13.781333 11.029333 24.746667a66.005333 66.005333 0 0 1-13.482666 73.642666 65.770667 65.770667 0 0 1-69.632 15.104l-3.968-1.621333L176.426667 149.333333l-13.781334 23.253334a391.189333 391.189333 0 0 0-39.829333 92.416l-2.944 10.88-6.677333 26.197333 25.237333 9.685333A65.984 65.984 0 0 1 181.013333 373.333333a66.069333 66.069333 0 0 1-38.869333 60.032l-3.754667 1.578667-25.173333 9.706667 6.656 26.154666c8.384 32.896 20.906667 64.298667 37.269333 93.653334l5.610667 9.706666L176.533333 597.333333l24.64-10.922666a66.133333 66.133333 0 0 1 73.664 13.525333 65.877333 65.877333 0 0 1 15.061334 69.653333l-1.621334 3.968-10.986666 24.704 23.253333 13.781334a391.232 391.232 0 0 0 92.437333 39.829333l10.88 2.944 26.197334 6.656z m176.448-72.256l-1.322667-1.984a126.613333 126.613333 0 0 0-98.602666-54.250667l-5.269334-0.106667a126.506667 126.506667 0 0 0-103.936 54.4l-1.301333 1.941334-7.530667-2.602667c-9.898667-3.541333-19.626667-7.573333-29.141333-12.053333l-6.997333-3.434667 0.64-3.328a126.485333 126.485333 0 0 0-31.445334-106.922667l-3.776-3.946666a126.677333 126.677333 0 0 0-110.869333-35.264l-3.370667 0.64-3.456-7.04c-4.48-9.493333-8.512-19.2-12.074666-29.12l-2.602667-7.594667 1.984-1.322667a126.613333 126.613333 0 0 0 54.250667-98.602666l0.106666-5.269334a126.506667 126.506667 0 0 0-54.4-103.936l-1.941333-1.28 2.602667-7.552c3.562667-9.898667 7.573333-19.626667 12.053333-29.141333l3.434667-6.997333 3.328 0.64a126.336 126.336 0 0 0 106.922666-31.530667l3.946667-3.776a126.549333 126.549333 0 0 0 35.2-110.933333l-0.618667-3.221334 7.04-3.477333c9.536-4.48 19.264-8.490667 29.184-12.053333l7.552-2.581334 1.344 1.962667a126.613333 126.613333 0 0 0 98.602667 54.250667l5.269333 0.106666a126.506667 126.506667 0 0 0 103.936-54.4l1.28-1.898666 7.552 2.56c9.92 3.562667 19.626667 7.573333 29.141334 12.053333l6.997333 3.456-0.64 3.306667a126.506667 126.506667 0 0 0 31.466667 106.922666l3.754666 3.946667a126.698667 126.698667 0 0 0 110.869334 35.264l3.349333-0.618667 3.477333 7.018667c4.48 9.493333 8.512 19.2 12.074667 29.12l2.56 7.573333-1.92 1.28a126.528 126.528 0 0 0-54.272 98.666667l-0.106667 5.269333 0.106667 5.269334a126.549333 126.549333 0 0 0 54.293333 98.666666l1.92 1.322667-2.56 7.509333c-3.562667 9.898667-7.594667 19.626667-12.074666 29.141334l-3.456 7.018666-3.328-0.64a126.336 126.336 0 0 0-106.901334 31.509334l-3.946666 3.776a126.549333 126.549333 0 0 0-35.2 110.933333l0.597333 3.242667-7.04 3.456c-9.536 4.48-19.264 8.512-29.184 12.074666l-7.552 2.581334z m-105.194667-188.8a127.082667 127.082667 0 0 0 127.04-127.061334 127.082667 127.082667 0 0 0-122.282666-126.933333l-4.757334-0.106667-4.757333 0.085334a127.082667 127.082667 0 0 0-122.282667 126.954666 127.082667 127.082667 0 0 0 127.04 127.04z m0-60.8a66.282667 66.282667 0 0 1-66.24-66.261334 66.282667 66.282667 0 0 1 62.485334-66.133333l3.754666-0.106667 3.754667 0.106667a66.282667 66.282667 0 0 1 62.378667 62.378667l0.106666 3.754666a66.282667 66.282667 0 0 1-66.24 66.24z"  horiz-adv-x="1024" />

    
    <glyph glyph-name="qukuai" unicode="&#59821;" d="M512 826.282667l383.018667-221.141334v-442.282666L512-58.282667 128.981333 162.858667V605.141333L512 826.282667zM192.96 520.597333v-320.768L480 34.112V354.858667l-287.04 165.76z m638.058667 0L544 354.837333V34.133333l287.018667 165.717334V520.576zM512 752.362667L215.722667 581.333333 512 410.282667l296.256 171.050666L512 752.384z"  horiz-adv-x="1024" />

    
    <glyph glyph-name="pingtai" unicode="&#59822;" d="M768.554667 71.509333v-64H258.666667v64h509.888zM906.666667 714.666667v-533.333334h-789.333334v533.333334h789.333334z m-64-64h-661.333334v-405.333334h661.333334v405.333334z m-115.712-237.824v-64h-426.666667v64h426.666667z m0 149.333333v-64h-426.666667v64h426.666667z"  horiz-adv-x="1024" />

    
    <glyph glyph-name="piaoju" unicode="&#59823;" d="M928 714.666667v-298.666667H896a53.333333 53.333333 0 0 1-3.498667-106.56L896 309.333333h32v-298.666666h-832v298.666666H128a53.333333 53.333333 0 0 1 3.498667 106.56L128 416H96v298.666667h832z m-618.666667-63.978667l-149.333333-0.021333v-175.061334l4.224-1.301333a117.418667 117.418667 0 0 0 80.704-101.76l0.32-5.162667 0.085333-4.714666a117.376 117.376 0 0 0-76.437333-110.016l-4.672-1.621334-4.224-1.28V74.666667l149.333333 0.021333v576z m554.666667-0.021333l-490.666667 0.021333v-576l490.666667-0.021333v175.082666l-4.224 1.28a117.418667 117.418667 0 0 0-80.704 101.76l-0.32 5.162667L778.666667 362.666667a117.376 117.376 0 0 0 76.437333 110.016l4.672 1.621333 4.224 1.301333V650.666667z m-170.666667-352v-64H490.666667v64h202.666666z m0 192v-64H490.666667v64h202.666666z"  horiz-adv-x="1024" />

    
    <glyph glyph-name="quanlingyuguimo" unicode="&#59824;" d="M458.666667 394.666667v-341.333334h-298.666667v341.333334h298.666667z m384-85.333334v-256h-298.666667v256h298.666667z m-448 21.333334h-170.666667v-213.333334h170.666667v213.333334z m384-85.333334h-170.666667v-128h170.666667v128z m64 490.666667v-341.333333h-298.666667v341.333333h298.666667z m-64-64h-170.666667v-213.333333h170.666667v213.333333z m-320 64v-256h-298.666667v256h298.666667z m-64-64h-170.666667v-128h170.666667v128z"  horiz-adv-x="1024" />

    
    <glyph glyph-name="ouyuan" unicode="&#59825;" d="M512 800c229.76 0 416-186.24 416-416S741.76-32 512-32 96 154.24 96 384 282.24 800 512 800z m0-64C317.589333 736 160 578.410667 160 384S317.589333 32 512 32 864 189.589333 864 384 706.410667 736 512 736z m26.176-106.666667c57.088 0 109.888-28.032 147.84-75.754666l4.138667-5.397334-51.221334-38.357333c-26.624 35.562667-62.762667 55.509333-100.757333 55.509333-49.301333 0-93.824-33.770667-118.912-85.312h116.330667v-64h-135.530667a233.642667 233.642667 0 0 1 0-64h135.530667v-64l-116.352-0.021333c25.109333-51.541333 69.632-85.333333 118.933333-85.333333 36.266667 0 70.826667 18.176 97.066667 50.773333l3.690666 4.736 51.221334-38.357333c-38.186667-50.986667-92.8-81.152-151.978667-81.152-85.546667 0-157.290667 62.016-188.117333 149.333333h-57.194667v64h42.730667a297.066667 297.066667 0 0 0 0 64h-42.730667v64l57.216 0.021333c30.826667 87.296 102.549333 149.312 188.096 149.312z"  horiz-adv-x="1024" />

    
    <glyph glyph-name="meiyuan" unicode="&#59826;" d="M512 800c229.76 0 416-186.24 416-416S741.76-32 512-32 96 154.24 96 384 282.24 800 512 800z m0-64C317.589333 736 160 578.410667 160 384S317.589333 32 512 32 864 189.589333 864 384 706.410667 736 512 736z m32-97.216l0.021333-75.477333c73.706667-9.152 126.101333-48.853333 128.64-105.6l0.106667-4.373334h-64c0 24.661333-36.266667 48-98.133333 48-62.912 0-98.133333-19.712-98.133334-48 0-25.386667 30.741333-46.592 91.946667-47.914666l6.186667-0.085334c96.469333 0 162.133333-43.541333 162.133333-112 0-64.512-52.693333-101.994667-128.746667-110.250666l-0.021333-76.544h-64V183.04c-75.114667 8.533333-128.810667 48.533333-131.392 105.962667l-0.085333 4.373333h64c0-24.661333 36.309333-48.021333 98.133333-48.021333 62.890667 0 98.133333 19.733333 98.133333 48 0 25.386667-30.72 46.592-91.925333 47.936l-12.458667 0.128c-93.056 1.856-155.882667 44.992-155.882666 111.936 0 65.301333 53.973333 102.890667 131.498666 110.549333l-0.021333 74.901333h64z"  horiz-adv-x="1024" />

    
    <glyph glyph-name="renminbi" unicode="&#59827;" d="M512 800c229.76 0 416-186.24 416-416S741.76-32 512-32 96 154.24 96 384 282.24 800 512 800z m0-64C317.589333 736 160 578.410667 160 384S317.589333 32 512 32 864 189.589333 864 384 706.410667 736 512 736z m105.386667-117.034667l45.226666-45.248-136.661333-136.682666H682.666667v-64h-138.666667v-81.941334H682.666667v-64h-138.666667v-100.8h-64v100.8H341.333333v64h138.666667v81.941334H341.333333v64h156.714667l-136.682667 136.682666 45.269334 45.226667L512 513.6l105.386667 105.386667z"  horiz-adv-x="1024" />

    
    <glyph glyph-name="saoma" unicode="&#59828;" d="M213.333333 266.666667V85.333333h202.666667v-64H149.333333V266.666667h64z m661.333334 0V21.333333H608v64H810.666667v181.333334h64z m0.042666 146.538666v-64H149.056v64h725.653333zM416 746.666667v-64H213.333333v-181.333334H149.333333V746.666667h266.666667zM874.666667 746.666667v-245.333334h-64V682.666667h-202.666667V746.666667H874.666667z"  horiz-adv-x="1024" />

    
    <glyph glyph-name="rongzizijin" unicode="&#59829;" d="M512 800c229.76 0 416-186.24 416-416S741.76-32 512-32 96 154.24 96 384 282.24 800 512 800z m0-64C317.589333 736 160 578.410667 160 384S317.589333 32 512 32 864 189.589333 864 384 706.410667 736 512 736z m0-155.904L708.096 384 512 187.904 315.904 384 512 580.096z m0-90.517333l-105.6-105.6L512 278.4 617.557333 384l-105.6 105.6z"  horiz-adv-x="1024" />

    
    <glyph glyph-name="quanqiukuajing" unicode="&#59830;" d="M509.056 736a357.546667 357.546667 0 0 0 260.202667-111.872c116.906667 4.842667 197.866667-20.394667 218.965333-81.642667 17.002667-49.386667-13.184-106.453333-76.117333-162.581333l-9.429334-8.213333c-9.685333-8.192-20.053333-16.362667-31.04-24.469334l-5.674666-4.117333c-17.28-181.888-170.474667-324.181333-356.906667-324.181333-102.336 0-194.666667 42.88-259.989333 111.637333l-7.466667-0.277333c-111.573333-3.093333-191.765333 23.082667-212.074667 82.090666C8.96 272 54.165333 339.562667 144.213333 405.973333l7.893334 5.717334C169.386667 593.664 322.56 736 509.077333 736z m283.093333-440.106667l-14.293333-8.042666-14.101333-7.616-14.442667-7.530667-14.762667-7.424-15.104-7.338667-15.381333-7.232-15.722667-7.104-7.957333-3.52-20.202667-8.64-20.650666-8.448-16.810667-6.613333-17.066667-6.442667-8.597333-3.178666-17.429333-6.229334-8.789334-3.050666-17.6-5.952-17.514666-5.674667-17.429334-5.418667-17.301333-5.141333-25.749333-7.210667-21.205334-5.546666-20.949333-5.12-16.597333-3.797334-16.405334-3.498666-16.213333-3.242667-16-2.944-19.712-3.306667-11.861333-1.770666a293.205333 293.205333 0 0 1 172.757333-55.936c134.357333 0 247.701333 89.962667 283.093333 212.949333zM153.386667 331.626667l-0.789334-0.682667c-48.170667-41.301333-69.610667-77.333333-62.592-97.749333 6.144-17.813333 30.762667-29.845333 68.778667-35.541334l9.386667-1.258666c6.4-0.746667 13.162667-1.322667 20.224-1.749334l12.458666-0.554666a356.224 356.224 0 0 0-47.466666 137.536zM509.013333 672c-162.666667 0-294.528-131.861333-294.528-294.549333 0-68.117333 23.125333-130.837333 61.952-180.736l3.477334 0.32 13.845333 1.408 14.165333 1.664 14.506667 1.941333 14.784 2.218667 18.88 3.136 19.306667 3.541333 23.68 4.842667 16.085333 3.562666 24.490667 5.866667 16.576 4.266667 16.746666 4.544 16.874667 4.821333 8.512 2.517333 17.088 5.248 17.216 5.546667 17.301333 5.824 17.237334 6.058667c5.696 2.048 11.349333 4.138667 16.96 6.229333l16.725333 6.4 8.234667 3.242667 16.277333 6.613333 16 6.698667 15.68 6.848 19.136 8.704 18.624 8.853333 7.317333 3.562667 14.336 7.210666 13.973334 7.253334 13.589333 7.317333 13.226667 7.338667 12.8 7.402666 6.250666 3.690667 12.202667 7.402667 11.776 7.402666 3.242667 2.133334C803.114667 540.586667 671.424 672 509.056 672z m308.608-111.829333l3.136-5.461334a356.181333 356.181333 0 0 0 43.946667-131.861333l9.173333 7.850667 3.925334 3.498666 7.445333 6.933334c33.429333 32.064 49.301333 60.586667 42.453333 80.512-7.104 20.608-46.506667 35.712-110.08 38.528z"  horiz-adv-x="1024" />

    
    <glyph glyph-name="shangyun" unicode="&#59831;" d="M522.666667 469.013333l165.930666-165.930666-133.824-133.802667v-148.736h-64v148.522667l-134.037333 134.016 165.930667 165.930666zM521.514667 712.32c125.717333 0 229.845333-92.522667 248-213.184l0.768-5.610667 3.776-0.085333c113.792-3.072 205.461333-94.741333 208.533333-208.533333l0.085333-5.888c0-114.048-89.109333-207.658667-202.453333-214.186667l-5.994667-0.256-6.058666-0.085333h-136v64h135.509333l5.12 0.085333a150.506667 150.506667 0 1 1-20.053333 300.16l-7.616-0.96-37.184-5.696 0.362666 39.445333a186.794667 186.794667 0 0 1-186.794666 186.794667c-101.312 0-183.786667-80.682667-186.709334-180.736l-0.085333-5.461333 0.725333-39.189334-37.077333 5.141334a150.506667 150.506667 0 0 1-26.026667-299.498667l5.056-0.085333h135.978667v-64h-135.978667c-118.464 0-214.506667 96.042667-214.506666 214.528 0 114.517333 89.749333 208.085333 202.730666 214.186666l7.125334 0.277334 0.789333 5.653333c17.834667 118.613333 118.762667 210.026667 241.621333 213.098667l6.357334 0.085333z m1.173333-333.781333l-75.434667-75.413334 75.434667-75.434666 75.413333 75.434666-75.413333 75.413334z"  horiz-adv-x="1024" />

    
    <glyph glyph-name="shangyehuaquanqiu" unicode="&#59832;" d="M500.736 810.666667c229.76 0 416-186.24 416-416S730.496-21.333333 500.736-21.333333s-416 186.24-416 416S270.976 810.666667 500.736 810.666667z m172.565333-109.12l0.234667 0.490666c-3.050667-6.826667-6.101333-13.44-9.216-19.84l-6.229333-12.522666c-34.496-67.2-72.96-107.221333-125.226667-107.221334-13.525333 0-22.314667-0.618667-28.352-1.941333l-3.818667-0.896c-0.085333 0-0.128 0.021333-0.128 0.064l-0.128-0.256a14.805333 14.805333 0 0 1-0.32-5.610667l0.426667-3.797333 0.832-4.736 1.237333-5.696 0.810667-3.2 2.005333-7.125333c0.362667-1.28 0.768-2.581333 1.194667-3.946667l2.858667-8.64c1.066667-3.050667 2.197333-6.272 3.477333-9.664 20.053333-53.546667 6.997333-106.112-29.098667-134.997333-39.317333-31.466667-92.629333-21.973333-112.277333 27.925333l-6.037333 15.146667-5.162667 12.544-3.050667 7.061333-3.434666 7.466667-3.114667 6.058666-1.173333 2.069334-2.261334 3.605333c-4.053333 5.909333-7.68 8.362667-12.16 9.322667l-3.178666 0.448-3.541334 0.106666-17.130666-0.213333-10.816 0.064c-23.893333 0.448-38.933333 3.712-53.248 14.634667-24.106667 18.410667-26.773333 47.616-12.992 83.072l1.92 4.650666c10.090667 23.872 8.832 40.661333-4.714667 55.402667A350.442667 350.442667 0 0 1 148.736 394.666667c0-194.410667 157.610667-352 352-352 31.424 0 61.866667 4.117333 90.837333 11.84 4.693333 27.861333-6.037333 50.026667-33.728 70.570666l-4.010666 2.88c-84.138667 58.56-87.893333 151.402667-22.592 191.146667 50.688 30.869333 105.6 31.488 146.432-8.597333l3.776-3.882667c8.106667-8.64 13.013333-12.074667 16.789333-13.162667l1.962667-0.426666 2.453333-0.128 2.24 0.085333 4.970667 0.533333 11.242666 1.514667c7.701333 1.088 13.546667 1.770667 20.096 2.218667 38.08 2.666667 62.933333-12.16 80.853334-46.506667a350.570667 350.570667 0 0 1 30.677333 143.914667c0 131.712-72.32 246.506667-179.434667 306.88z m-108.8-437.12c-22.869333-13.930667-22.186667-48.341333 21.674667-80.917334l4.224-3.029333c39.829333-27.733333 62.016-62.421333 65.706667-101.76a353.173333 353.173333 0 0 1 123.669333 101.333333l-1.066667 4.394667-2.346666 8.746667-1.130667 3.946666-2.218667 7.189334-1.109333 3.242666-2.176 5.781334c-6.933333 16.896-13.866667 20.778667-24.064 20.053333l-5.76-0.490667-6.272-0.746666-15.893333-2.176-7.68-0.853334-6.186667-0.384a61.546667 61.546667 0 0 0-8.533333 0.341334l-5.696 0.810666-1.258667 0.213334c-19.242667 3.392-35.925333 13.845333-53.653333 32.768-17.706667 18.922667-41.429333 19.072-70.208 1.557333zM500.757333 746.666667c-84.992 0-162.965333-30.122667-223.786666-80.298667 30.869333-32.362667 37.973333-74.112 20.309333-120.021333l-2.133333-5.312a91.285333 91.285333 0 0 1-4.074667-11.456l-0.341333-1.28 5.226666-0.426667 4.416-0.213333 2.496-0.042667h12.778667l12.842667 0.149333c38.101333 0 57.706667-11.370667 77.717333-48.256l4.309333-8.298666 4.352-9.109334 4.458667-9.941333 4.586667-10.837333 7.253333-17.941334c2.773333-7.082667 5.098667-7.509333 12.714667-1.408 13.973333 11.178667 19.733333 34.346667 9.173333 62.570667-19.818667 52.864-22.741333 88.042667-3.648 113.621333 15.658667 20.970667 36.437333 27.178667 72.256 28.138667l11.2 0.149333c23.488 0 54.101333 39.68 82.026667 101.269334A350.997333 350.997333 0 0 1 500.736 746.666667z"  horiz-adv-x="1024" />

    
    <glyph glyph-name="shenfenrenzheng" unicode="&#59833;" d="M949.333333 736v-704h-874.666666v704h874.666666z m-64-64h-746.666666v-576h746.666666v576z m-512.042666-142.229333a105.365333 105.365333 0 0 0 82.154666-171.328 149.162667 149.162667 0 0 0 67.136-119.616l0.085334-5.141334h-64a85.376 85.376 0 0 1-170.624 4.266667l-0.106667-4.266667h-64a149.226667 149.226667 0 0 0 67.221333 124.778667 105.365333 105.365333 0 0 0 82.133334 171.306667z m435.498666-197.717334v-64h-202.133333v64h202.133333z m-435.498666 133.717334a41.365333 41.365333 0 1 1 0-82.709334 41.365333 41.365333 0 0 1 0 82.709334z m360.32 34.176v-64h-126.954667v64h126.933333z"  horiz-adv-x="1024" />

    
    <glyph glyph-name="shijianzhouqi" unicode="&#59834;" d="M854.72 757.333333v-64h-106.581333v-189.184l-179.264-118.464 179.264-118.464v-207.146666h106.581333v-64h-682.666667v64h106.56v207.146666l179.285334 118.464-179.285334 118.464V693.333333H172.053333v64h682.666667zM513.365333 345.642667l-170.752-112.832v-172.736h341.525334l-0.021334 172.736-170.752 112.832zM620.245333 192l0.170667-64-213.866667-0.533333-0.170666 64L620.245333 192zM684.16 693.333333h-341.546667l0.021334-154.773333 170.752-112.832 170.752 112.832V693.333333z"  horiz-adv-x="1024" />

    
    <glyph glyph-name="shijianchuo" unicode="&#59835;" d="M533.333333 800c229.76 0 416-186.24 416-416S763.093333-32 533.333333-32 117.333333 154.24 117.333333 384 303.573333 800 533.333333 800z m0-64C338.922667 736 181.333333 578.410667 181.333333 384S338.922667 32 533.333333 32 885.333333 189.589333 885.333333 384 727.744 736 533.333333 736z m32-116.608v-220.992l163.2-144.554667-42.410666-47.893333-184.789334 163.626667v249.813333h64z"  horiz-adv-x="1024" />

    
    <glyph glyph-name="shuzihua" unicode="&#59836;" d="M532.757333 787.349333v-362.965333h362.666667v-32c0-217.962667-176.704-394.666667-394.666667-394.666667s-394.666667 176.704-394.666666 394.666667c0 212.778667 168.554667 386.688 380.330666 394.410667l7.146667 0.192 39.189333 0.362666z m-64-65.813333l-8.277333-0.917333c-163.818667-19.882667-290.389333-159.466667-290.389333-328.234667 0-182.613333 148.053333-330.666667 330.666666-330.666667 168.96 0 308.330667 126.72 328.234667 290.346667l0.874667 8.32H468.757333V721.536z m160 86.954667c154.026667 0 280.213333-121.130667 287.509334-274.282667l0.256-6.677333 0.490666-38.890667H596.736V808.490667h32z m31.978667-66.282667v-189.568h189.568l-0.490667 3.456a224.064 224.064 0 0 1-179.2 184.490667l-6.165333 1.066666-3.712 0.554667z"  horiz-adv-x="1024" />

    
    <glyph glyph-name="tupian" unicode="&#59837;" d="M906.666667 736v-704h-768v704h768z m-167.061334-366.4l-216.405333-180.096-140.565333 110.890667L202.666667 154.858667V96h640v188.117333l-103.061334 85.482667zM842.666667 672h-640v-434.837333l179.477333 145.130666 139.968-110.421333 217.450667 180.906667 103.104-85.504V672z m-437.333334-42.666667a96 96 0 1 0 0-192 96 96 0 0 0 0 192z m0-64a32 32 0 1 1 0-64 32 32 0 0 1 0 64z"  horiz-adv-x="1024" />

    
    <glyph glyph-name="tiaoxingma" unicode="&#59838;" d="M234.666667 746.666667v-704H170.666667V746.666667h64z m640 0v-704h-42.666667V746.666667h42.666667zM576 106.666667v-64h-42.666667v64h42.666667z m-106.666667 0v-64h-64v64h64z m-128 0v-64h-42.666666v64h42.666666z m426.666667 0v-64h-128v64h128zM576 746.666667v-576h-42.666667V746.666667h42.666667z m-106.666667 0v-576h-64V746.666667h64z m-128 0v-576h-42.666666V746.666667h42.666666z m426.666667 0v-576h-128V746.666667h128z"  horiz-adv-x="1024" />

    
    <glyph glyph-name="tubiaozhutu" unicode="&#59839;" d="M629.333333 736v-768h-213.333333v768h213.333333z m-277.333333-192v-576h-213.333333v576h213.333333z m554.666667-213.333333v-362.666667h-213.333334v362.666667h213.333334z m-341.333334 341.333333h-85.333333v-640h85.333333v640z m-277.333333-192h-85.333333v-448h85.333333v448z m554.666667-213.333333h-85.333334v-234.666667h85.333334v234.666667z"  horiz-adv-x="1024" />

    
    <glyph glyph-name="suyuan" unicode="&#59840;" d="M512 800c229.76 0 416-186.24 416-416 0-30.762667-3.349333-61.098667-9.898667-90.624l-2.624-11.029333-62.08 15.573333c7.04 27.904 10.602667 56.746667 10.602667 86.08 0 194.410667-157.589333 352-352 352S160 578.410667 160 384 317.589333 32 512 32a350.506667 350.506667 0 0 1 225.408 81.621333l2.304 1.984-250.090667 245.546667 44.757334 45.717333 258.538666-253.824 38.314667-37.696-22.4-22.826666A414.762667 414.762667 0 0 0 512-32C282.24-32 96 154.24 96 384S282.24 800 512 800z m0-213.333333a202.666667 202.666667 0 0 0 198.613333-243.178667l-1.770666-7.893333-62.165334 15.232a138.666667 138.666667 0 1 1-107.968-102.933334l6.506667 1.429334 15.253333-62.144A202.666667 202.666667 0 1 0 512 586.666667z"  horiz-adv-x="1024" />

    
    <glyph glyph-name="shujuku" unicode="&#59841;" d="M522.666667 800l8.533333-0.042667a910.08 910.08 0 0 0 91.562667-5.333333l14.549333-1.706667 15.402667-2.133333 15.125333-2.410667 7.573333-1.322666 14.890667-2.837334c125.205333-25.322667 212.928-79.488 216.256-150.677333l0.106667-4.202667v-448c0-73.258667-88.704-129.066667-216.362667-154.88l-14.890667-2.837333-7.573333-1.322667-15.125333-2.389333-15.402667-2.133333c-36.266667-4.650667-74.773333-7.104-114.645333-7.104-39.872 0-78.378667 2.453333-114.645334 7.104l-15.402666 2.133333-15.125334 2.389333c-137.088 23.189333-235.264 79.488-238.72 154.901334L138.666667 181.333333v448l0.106666 4.202667c3.328 71.189333 91.050667 125.354667 216.256 150.677333l14.890667 2.837334 7.573333 1.322666 15.125334 2.389334 15.402666 2.133333a892.202667 892.202667 0 0 0 97.642667 6.954667L522.666667 800z m145.173333-543.04l-15.125333-2.389333-15.402667-2.133334c-36.266667-4.650667-74.773333-7.104-114.645333-7.104-39.872 0-78.378667 2.453333-114.645334 7.104l-15.402666 2.133334-15.125334 2.389333c-71.488 12.096-132.416 33.194667-174.826666 61.312V181.333333c0-20.949333 24.170667-42.773333 65.066666-61.184l9.749334-4.181333c15.04-6.186667 32-11.925333 50.602666-17.024l12.650667-3.306667c12.864-3.2 26.453333-6.144 40.597333-8.704l14.378667-2.453333 14.741333-2.197333c9.962667-1.386667 20.16-2.602667 30.570667-3.626667l15.765333-1.408 16.064-1.109333 16.362667-0.810667a845.994667 845.994667 0 0 1 66.901333 0l16.362667 0.810667 16.064 1.109333 15.786667 1.408c10.389333 1.024 20.586667 2.24 30.549333 3.626667l14.741333 2.197333 14.378667 2.453333c14.165333 2.56 27.733333 5.482667 40.597333 8.704l12.650667 3.306667c18.602667 5.12 35.562667 10.837333 50.602667 17.024l9.749333 4.181333c39.317333 17.706667 63.189333 38.549333 64.96 58.773334l0.106667 2.410666v136.96c-42.389333-28.138667-103.317333-49.237333-174.826667-61.333333zM842.666667 531.626667c-40.298667-26.730667-97.28-47.104-164.202667-59.456l-10.666667-1.877334-15.104-2.389333-15.402666-2.133333c-36.266667-4.650667-74.773333-7.104-114.645334-7.104-34.176 0-67.349333 1.792-98.986666 5.248l-15.658667 1.856-15.402667 2.133333-15.125333 2.389333c-71.488 12.096-132.416 33.194667-174.826667 61.312V416c0-20.949333 24.170667-42.773333 65.066667-61.184l9.749333-4.181333c15.04-6.186667 32-11.925333 50.602667-17.024l12.650667-3.306667c12.864-3.2 26.453333-6.144 40.597333-8.704l14.378667-2.453333 14.741333-2.197334c9.962667-1.386667 20.16-2.602667 30.570667-3.626666l15.765333-1.408 16.064-1.109334 16.362667-0.810666a845.994667 845.994667 0 0 1 66.901333 0l16.362667 0.810666 16.064 1.109334 15.786666 1.408c10.389333 1.024 20.586667 2.24 30.549334 3.626666l14.741333 2.197334 14.378667 2.453333c14.165333 2.56 27.733333 5.482667 40.597333 8.704l12.650667 3.306667c18.602667 5.12 35.562667 10.837333 50.602666 17.024l9.749334 4.181333c39.317333 17.706667 63.189333 38.549333 64.96 58.773333l0.106666 2.410667v115.626667zM522.666667 736l-8.448-0.042667-12.586667-0.213333-12.416-0.405333-16.362667-0.810667-16.064-1.109333-15.786666-1.408c-6.933333-0.682667-13.76-1.450667-20.501334-2.304l-10.026666-1.322667-14.762667-2.197333-14.378667-2.453334c-10.624-1.92-20.906667-4.053333-30.826666-6.336l-9.770667-2.346666-12.650667-3.328c-15.488-4.266667-29.866667-8.96-42.922666-13.973334l-7.68-3.050666-9.749334-4.181334c-40.896-18.410667-65.066667-40.234667-65.066666-61.184 0-20.053333 22.122667-40.874667 59.84-58.773333l5.226666-2.410667 9.749334-4.181333c12.522667-5.162667 26.389333-10.005333 41.450666-14.421333l9.173334-2.602667 12.629333-3.306667c9.642667-2.410667 19.690667-4.650667 30.08-6.72l10.517333-1.984 14.378667-2.453333 14.741333-2.197333c6.634667-0.938667 13.376-1.770667 20.224-2.56l10.346667-1.066667 15.765333-1.408 16.064-1.109333 16.362667-0.810667a845.994667 845.994667 0 0 1 55.872-0.362667l11.029333 0.362667 16.362667 0.810667 16.064 1.109333 15.786667 1.408c6.933333 0.682667 13.76 1.450667 20.501333 2.304l10.026667 1.322667 14.762666 2.197333 14.378667 2.453333c10.624 1.92 20.906667 4.053333 30.826667 6.336l9.770666 2.346667 12.650667 3.328c15.488 4.266667 29.866667 8.96 42.922667 13.973333l7.68 3.050667 9.749333 4.181333c40.896 18.410667 65.066667 40.234667 65.066667 61.184 0 20.053333-22.122667 40.874667-59.84 58.773334l-5.226667 2.410666-9.749333 4.181334a424.469333 424.469333 0 0 1-41.450667 14.421333l-9.173333 2.602667-12.629334 3.306666a623.658667 623.658667 0 0 1-30.08 6.72l-10.517333 1.984-14.378667 2.453334-14.741333 2.197333a765.994667 765.994667 0 0 1-20.224 2.56l-10.346667 1.066667-15.765333 1.408-16.064 1.109333-16.362667 0.810667c-7.317333 0.298667-14.72 0.490667-22.186666 0.597333L522.666667 736z"  horiz-adv-x="1024" />

    
    <glyph glyph-name="wendingkekao" unicode="&#59842;" d="M512 757.333333a117.333333 117.333333 0 0 0 91.605333-190.656l195.541334-338.688A117.333333 117.333333 0 1 0 702.570667 85.333333H321.429333a117.333333 117.333333 0 1 0-96.576 142.656l195.541334 338.688A117.333333 117.333333 0 0 0 512 757.333333z m-258.645333-618.666666a53.333333 53.333333 0 1 1-92.373334-53.333334 53.333333 53.333333 0 0 1 92.373334 53.333334z m590.144 19.52a53.333333 53.333333 0 1 1-53.333334-92.373334 53.333333 53.333333 0 0 1 53.333334 92.373334z m-292.266667 371.2A117.12 117.12 0 0 0 512 522.666667c-13.76 0-26.965333 2.346667-39.210667 6.72l-189.44-328.106667A117.141333 117.141333 0 0 0 318.421333 149.333333h387.157334a117.888 117.888 0 0 0 35.072 51.946667l-189.44 328.106667zM512 693.333333a53.333333 53.333333 0 1 1 0-106.666666 53.333333 53.333333 0 0 1 0 106.666666z"  horiz-adv-x="1024" />

    
    <glyph glyph-name="wangluo" unicode="&#59843;" d="M512 800c229.76 0 416-186.24 416-416S741.76-32 512-32 96 154.24 96 384 282.24 800 512 800z m-32-448l-127.317333-0.021333c0.896-20.48 2.624-40.405333 5.12-59.669334l1.984-14.293333 2.474666-15.253333c19.754667-112.896 65.728-197.738667 117.76-222.997334L480 352z m191.317333-0.021333L544 352v-312.234667c50.858667 24.725333 95.936 106.368 116.373333 215.509334l1.365334 7.488 2.474666 15.232a701.013333 701.013333 0 0 1 7.104 73.984z m-382.698666 0H161.429333c11.648-129.066667 92.992-238.08 206.101334-289.066667-22.122667 34.282667-40.362667 76.416-53.76 124.032l-3.029334 11.093333-3.52 14.165334-3.242666 14.464a744.490667 744.490667 0 0 0-15.36 125.312z m573.952 0H735.36a752.661333 752.661333 0 0 0-12.672-112.128l-2.688-13.184-3.242667-14.464-3.52-14.186667c-13.653333-52.138667-32.96-98.197333-56.789333-135.104 113.109333 50.986667 194.453333 160 206.08 289.066667zM367.530667 705.109333l-2.858667-1.301333C253.013333 652.266667 172.970667 544 161.429333 416h127.189334c1.536 39.04 5.866667 76.693333 12.672 112.149333l2.688 13.184 3.242666 14.464 3.52 14.186667c13.653333 52.138667 32.96 98.197333 56.789334 135.104zM480 728.234667c-50.709333-24.618667-95.68-105.898667-116.202667-214.592l-1.536-8.405334-2.474666-15.232a701.034667 701.034667 0 0 1-7.104-74.005333H480V728.234667z m176.469333-23.146667l2.56-4.053333c20.906667-33.429333 38.229333-73.984 51.093334-119.552l3.136-11.52 3.52-14.165334 3.242666-14.464c8.362667-39.253333 13.632-81.408 15.36-125.333333h127.189334c-11.626667 129.088-92.970667 238.101333-206.101334 289.066667zM544 728.234667L544 416h127.317333a707.136 707.136 0 0 1-5.333333 61.376l-1.770667 12.629333-2.474666 15.232c-19.754667 112.874667-65.706667 197.717333-117.717334 222.997334z"  horiz-adv-x="1024" />

    
    <glyph glyph-name="xinyongkayinhangka" unicode="&#59844;" d="M928 714.666667v-661.333334h-832v661.333334h832z m-64-237.098667h-704V117.333333h704V477.568zM789.333333 256v-64h-192v64h192z m74.666667 394.666667h-704v-109.098667h704V650.666667z"  horiz-adv-x="1024" />

    
    <glyph glyph-name="wuliu" unicode="&#59845;" d="M923.818667 701.077333v-64l-422.122667 0.021334v-469.333334h198.549333a117.376 117.376 0 0 0 220.864-0.021333h2.709334v-8.576a117.333333 117.333333 0 0 0-227.968-55.466667l-282.368 0.021334a117.376 117.376 0 0 0-229.632 0l-92.266667 0.021333-0.021333 271.637333 185.962666 185.941334h160.170667V701.077333h486.122667zM298.666667 181.333333a53.333333 53.333333 0 1 1 0-106.666666 53.333333 53.333333 0 0 1 0 106.666666z m512 0a53.333333 53.333333 0 1 1 0-106.666666 53.333333 53.333333 0 0 1 0 106.666666zM304.021333 497.344l-148.48-148.48 0.021334-181.098667h32.682666a117.376 117.376 0 0 0 220.842667 0h28.608V497.322667l-133.674667 0.021333zM927.850667 554.666667l0.298666-64-324.181333-1.557334-0.32 64L927.850667 554.666667z"  horiz-adv-x="1024" />

    
    <glyph glyph-name="yiliaofuwu" unicode="&#59846;" d="M693.333333 757.333333v-149.333333h192v-597.333333h-746.666666v597.333333h192v149.333333h362.666666z m128-213.333333h-618.666666v-469.333333h618.666666v469.333333z m-277.482666-85.184V341.333333H661.333333v-64h-117.482666v-117.482666h-64V277.333333h-117.482667v64h117.482667v117.482667h64zM629.333333 693.333333h-234.666666v-85.333333h234.666666v85.333333z"  horiz-adv-x="1024" />

    
    <glyph glyph-name="yiliaojigou" unicode="&#59847;" d="M629.333333 778.666667V448h277.333334v-458.666667h-789.333334v789.333334h512z m-64-64h-384v-661.333334h85.333334v192h213.333333v-192h85.333333v661.333334z m277.333334-330.666667h-213.333334v-330.666667h213.333334V384z m-426.666667-202.666667h-85.333333v-128h85.333333v128z m362.666667 10.666667v-64h-86.656v64H778.666667z m0 128v-64h-86.656v64H778.666667zM404.010667 629.333333V554.666667h74.666666v-64h-74.666666v-74.666667h-64V490.666667h-74.666667v64h74.666667v74.666666h64z"  horiz-adv-x="1024" />

    
    <glyph glyph-name="yinhang" unicode="&#59848;" d="M650.666667 778.666667V448h277.333333v-458.666667h-789.333333v789.333334h512z m-64-64h-384v-661.333334h85.333333v213.333334h213.333333v-213.333334h85.333334v661.333334z m277.333333-330.666667h-213.333333v-330.666667h213.333333V384z m-426.666667-181.333333h-85.333333v-149.333334h85.333333v149.333334zM500.010667 448v-64h-213.333334v64h213.333334z m0 149.333333v-64h-213.333334v64h213.333334z"  horiz-adv-x="1024" />

    
    <glyph glyph-name="yinle" unicode="&#59849;" d="M864 738.666667V170.666667a117.333333 117.333333 0 1 0-64 104.533333V520l-469.333333-37.546667V128a117.333333 117.333333 0 0 0-112.618667-117.248L213.333333 10.666667a117.333333 117.333333 0 1 0 53.333334 221.866666V690.88l597.333333 47.786667zM213.333333 181.333333a53.333333 53.333333 0 1 1 0-106.666666 53.333333 53.333333 0 0 1 0 106.666666z m533.333334 42.666667a53.333333 53.333333 0 1 1 0-106.666667 53.333333 53.333333 0 0 1 0 106.666667z m53.333333 445.333333l-469.333333-37.546666v-85.12l469.333333 37.546666v85.12z"  horiz-adv-x="1024" />

    
    <glyph glyph-name="shenfenshibierenzheng" unicode="&#59850;" d="M202.666667 243.456V74.666667h158.72v-64H138.666667V243.456h64z m682.666666 0V10.666667H662.570667v64h158.741333l0.021333 168.789333h64zM512 608a138.666667 138.666667 0 0 0 96.832-237.930667 202.602667 202.602667 0 0 0 105.749333-172.309333l0.085334-5.76h-64a138.666667 138.666667 0 0 1-277.248 4.970667L373.333333 192h-64a202.624 202.624 0 0 0 105.834667 178.090667A138.666667 138.666667 0 0 0 512 608z m0-64a74.666667 74.666667 0 1 1 0-149.333333 74.666667 74.666667 0 0 1 0 149.333333z m-150.592 213.333333v-64H202.666667v-148.693333h-64V757.333333h222.741333z m523.925333 0v-212.693333h-64l-0.021333 148.693333h-158.72v64H885.333333z"  horiz-adv-x="1024" />

    
    <glyph glyph-name="xingnengjisuan" unicode="&#59851;" d="M371.776 810.666667v-117.397334h98.133333V810.666667h64v-117.397334h98.133334V810.666667h64v-117.397334h119.338666v-110.933333h115.989334v-64H815.36v-98.133333h115.989333v-64H815.36v-98.133334h115.989333v-64H815.36v-112h-119.338667v-117.44h-64v117.44h-98.133333v-117.44h-64v117.44h-98.133333v-117.44h-64v117.44H204.181333v112H85.333333v64h118.848v98.133334H85.333333v64h118.848v98.133333H85.333333v64h118.848v110.933333h103.594667V810.666667h64z m379.605333-181.397334h-483.2v-483.2h483.2v483.2z m-98.133333-98.133333v-286.933333h-286.933333v286.933333h286.933333z m-64-64h-158.933333v-158.933333h158.933333v158.933333z"  horiz-adv-x="1024" />

    
    <glyph glyph-name="yingyongchangjing" unicode="&#59852;" d="M458.666667 330.666667v-298.666667h-298.666667v298.666667h298.666667z m426.666666 0v-298.666667h-298.666666v298.666667h298.666666z m-490.666666-64h-170.666667v-170.666667h170.666667v170.666667z m426.666666 0h-170.666666v-170.666667h170.666666v170.666667z m-362.666666 490.666666v-298.666666h-298.666667v298.666666h298.666667z m426.666666 0v-298.666666h-298.666666v298.666666h298.666666z m-490.666666-64h-170.666667v-170.666666h170.666667v170.666666z m426.666666 0h-170.666666v-170.666666h170.666666v170.666666z"  horiz-adv-x="1024" />

    
    <glyph glyph-name="yinsibaohu" unicode="&#59853;" d="M515.050667 842.666667c112.128 0 202.602667-94.08 205.632-210.496l0.085333-6.037334-0.021333-60.8H864v-597.333333h-704v597.333333h149.312l0.021333 60.8c0 119.168 91.648 216.533333 205.717334 216.533334z m284.949333-341.333334h-576v-469.333333h576v469.333333z m-170.666667-106.666666v-234.666667h-234.666666v234.666667h234.666666z m-64-64h-106.666666v-106.666667h106.666666v106.666667z m-50.282666 448c-76.202667 0-139.050667-65.066667-141.653334-147.264l-0.064-5.269334-0.021333-60.8h283.434667v60.8c0 84.650667-63.872 152.533333-141.696 152.533334z"  horiz-adv-x="1024" />

    
    <glyph glyph-name="shujujianguan" unicode="&#59854;" d="M746.666667 53.333333v-64H277.333333v64h469.333334z m160 704v-618.666666h-789.333334v618.666666h789.333334z m-64-64h-661.333334v-490.666666h661.333334v490.666666zM384 476.928v-149.333333h-64v149.333333h64z m160 85.333333v-234.666666h-64v234.666666h64z m160-64v-170.666666h-64v170.666666h64z"  horiz-adv-x="1024" />

    
    <glyph glyph-name="zhenshikexin" unicode="&#59855;" d="M501.333333 847.210667l132.501334-132.522667 187.52-0.021333-0.042667-187.434667 132.565333-132.565333-132.565333-132.501334 0.021333-187.52-187.498666 0.042667-132.48-132.565333-132.586667 132.565333L181.333333 74.666667 181.333333 262.165333l-132.522666 132.48 132.522666 132.586667L181.333333 714.666667l187.434667 0.021333L501.333333 847.210667zM501.333333 756.714667l-106.026666-106.026667H245.333333v-149.973333l-106.026666-106.026667 106.026666-106.026667V138.666667l149.973334 0.021333 106.026666-106.048 106.026667 106.048 149.994667-0.021333-0.021334 149.973333 106.048 106.048-106.048 106.026667 0.021334 149.973333h-149.994667l-106.026667 106.026667z m131.370667-246.549334l45.248-45.248-203.648-203.648-143.296 143.296 45.248 45.269334 98.048-98.048 158.4 158.378666z"  horiz-adv-x="1024" />

    
    <glyph glyph-name="yinzhangrenzheng" unicode="&#59856;" d="M865.962667 42.666667v-64H138.666667v64h727.296zM501.333333 800c102.4 0 174.976-57.898667 188.245334-156.010667 7.552-56.042667-11.050667-110.592-57.642667-165.76-17.28-20.48-25.130667-53.568-20.16-81.002666 5.845333-32.149333 26.026667-51.328 50.922667-52.928l3.413333-0.106667h124.970667L852.48 117.333333H150.186667l61.44 226.858667h124.885333c26.474667 0 48.256 19.413333 54.357333 53.034667 4.970667 27.434667-2.88 60.522667-20.117333 80.96-46.613333 55.210667-65.237333 109.76-57.664 165.802666 13.226667 98.112 85.845333 156.010667 188.224 156.010667z m0-64c-71.509333 0-116.010667-35.498667-124.8-100.586667-4.992-36.970667 7.594667-73.834667 43.136-115.946666 30.016-35.584 42.453333-88.064 34.176-133.653334-11.093333-61.418667-56.277333-103.189333-112.341333-105.514666l-4.970667-0.106667h-75.946666L233.792 181.333333H768.853333l-26.773333 98.858667h-75.968c-54.933333 0-100.309333 37.610667-114.986667 94.826667l-1.28 5.418666-1.066666 5.376c-8.256 45.610667 4.202667 98.090667 34.218666 133.674667 35.541333 42.090667 48.128 78.954667 43.136 115.925333-8.810667 65.088-53.290667 100.586667-124.821333 100.586667z"  horiz-adv-x="1024" />

    
    <glyph glyph-name="wendang" unicode="&#59857;" d="M654.826667 778.666667l209.173333-209.173334V-32h-704v810.666667h494.826667zM586.666667 714.688h-362.666667V32h576v469.333333h-213.333333V714.666667zM704 224v-64H320v64h384z m0 170.666667v-64H320v64h384z m-203.264 170.666666v-64H320v64h180.736z m276.928 0L650.666667 692.330667V565.333333h126.997333z"  horiz-adv-x="1024" />

    
    <glyph glyph-name="yuanchengchuantou" unicode="&#59858;" d="M586.666667 736V405.333333h242.048l-111.296 111.296 45.248 45.269334 188.565333-188.586667-188.565333-188.544-45.248 45.248L828.714667 341.333333H586.666667v-330.666666h-298.666667V234.666667h64v-160h170.666667V341.333333H72.661333v64H522.666667V672h-170.666667v-159.104h-64V736z"  horiz-adv-x="1024" />

    
    <glyph glyph-name="zhengzhaozhizhao" unicode="&#59859;" d="M928 714.666667v-661.333334h-832v661.333334h832z m-64-64h-704v-533.333334h704v533.333334z m-85.333333-373.333334v-64h-533.333334v64h533.333334zM512 554.666667l31.36-63.509334 70.08-10.197333-50.709333-49.450667 11.946666-69.802666L512 394.666667l-62.698667-32.96 11.968 69.802666-50.709333 49.450667 70.101333 10.197333L512 554.666667z"  horiz-adv-x="1024" />

    
    <glyph glyph-name="zhinengheyue" unicode="&#59860;" d="M906.666667 693.333333v-682.666666h-789.333334v682.666666h789.333334z m-64-64h-661.333334v-554.666666h661.333334v554.666666zM326.464 385.28L434.432 277.333333l-107.946667-107.946666-45.269333 45.226666L343.914667 277.333333l-62.698667 62.72 45.248 45.226667zM733.909333 234.666667v-64H481.792v64h252.117333z m0 149.333333v-64H481.792v64h252.117333z m2.090667 149.333333v-64h-448v64h448z"  horiz-adv-x="1024" />

    
    <glyph glyph-name="zhengfu" unicode="&#59861;" d="M510.933333 812.437333L906.666667 524.8v-56.810667h-95.146667V204.16h73.813333v-234.666667h-746.666666v234.666667h73.792V467.989333H117.333333V524.8L510.933333 812.437333zM821.333333 140.16h-618.666666v-106.666667h618.666666v106.666667zM390.805333 467.989333h-114.346666V204.16h114.346666V467.989333z m178.368 0h-114.368V204.16h114.368V467.989333z m178.346667 0h-114.346667V204.16h114.346667V467.989333zM511.018667 733.269333l-275.370667-201.258666h552.256L511.018667 733.269333z"  horiz-adv-x="1024" />

    
    <glyph glyph-name="bianji" unicode="&#58941;" d="M1022.867927-127.988565H0V894.216127h511.468269a40.022781 40.022781 0 1 0 0-80.045561H80.045562v-862.113569h862.776803V382.679248a40.022781 40.022781 0 0 0 80.045562 0zM291.868988 123.388804a40.022781 40.022781 0 0 0-28.301824 68.324604L956.178539 884.279043a40.025068 40.025068 0 0 0 56.603647-56.603647L320.170812 135.109761a39.86269 39.86269 0 0 0-28.301824-11.720957z"  horiz-adv-x="1024" />

    
    <glyph glyph-name="gengduo" unicode="&#58945;" d="M512 384m-96.7 0a96.7 96.7 0 1 1 193.4 0 96.7 96.7 0 1 1-193.4 0ZM863 384m-96.7 0a96.7 96.7 0 1 1 193.4 0 96.7 96.7 0 1 1-193.4 0ZM161 384m-96.7 0a96.7 96.7 0 1 1 193.4 0 96.7 96.7 0 1 1-193.4 0Z"  horiz-adv-x="1024" />

    
    <glyph glyph-name="lajitong" unicode="&#58946;" d="M611.3 638.1c-22.1 0-40 17.9-40 40v70.6H452.7v-70.6c0-22.1-17.9-40-40-40s-40 17.9-40 40v88.4c0 34.3 28.9 62.2 64.5 62.2h149.6c35.6 0 64.5-27.9 64.5-62.2v-88.4c0-22-17.9-40-40-40zM754.6-61.3H269.4c-33.3 0-59.3 30.7-59.3 70V640c0 22.1 17.9 40 40 40s40-17.9 40-40v-621.3H734V640c0 22.1 17.9 40 40 40s40-17.9 40-40v-631.3c-0.1-39.2-26.1-70-59.4-70zM918.3 600H105.7c-22.1 0-40 17.9-40 40s17.9 40 40 40h812.6c22.1 0 40-17.9 40-40s-17.9-40-40-40zM430.7 115.1c-22.1 0-40 17.9-40 39.9l-0.4 308.6c0 22.1 17.9 40 39.9 40.1h0.1c22.1 0 40-17.9 40-39.9l0.4-308.6c0-22.1-17.9-40.1-40-40.1zM593.8 115.1c-22.1 0-40 17.9-40 39.9l-0.4 308.6c0 22.1 17.9 40 39.9 40.1h0.1c22.1 0 40-17.9 40-39.9l0.4-308.6c0-22.1-17.9-40.1-40-40.1z"  horiz-adv-x="1024" />

    
    <glyph glyph-name="sousuo" unicode="&#58947;" d="M426.9 111c-48.5 0-95.6 9.5-140 28.3-42.8 18.1-81.3 44-114.3 77s-58.9 71.5-77 114.3C76.8 375 67.3 422 67.3 470.6s9.5 95.6 28.3 140c18.1 42.8 44 81.3 77 114.3s71.5 58.9 114.3 77c44.4 18.8 91.4 28.3 140 28.3s95.6-9.5 140-28.3c42.8-18.1 81.3-44 114.3-77s58.9-71.5 77-114.3c18.8-44.4 28.3-91.4 28.3-140s-9.5-95.6-28.3-140c-18.1-42.8-44-81.3-77-114.3s-71.5-58.9-114.3-77c-44.4-18.8-91.5-28.3-140-28.3z m0 639.1c-154.2 0-279.6-125.4-279.6-279.6S272.7 191 426.9 191c154.2 0 279.6 125.4 279.6 279.6S581 750.1 426.9 750.1zM922.7-66.7c-10.2 0-20.5 3.9-28.3 11.7L648.6 190.9c-15.6 15.6-15.6 40.9 0 56.6s40.9 15.6 56.6 0L951 1.6c15.6-15.6 15.6-40.9 0-56.6-7.8-7.8-18-11.7-28.3-11.7z"  horiz-adv-x="1024" />

    
    <glyph glyph-name="user" unicode="&#59862;" d="M498.602667 704.256a204.714667 204.714667 0 0 0 116.906666-372.8c133.162667-47.317333 229.077333-173.290667 231.893334-322.026667l0.085333-6.784h-64c0 157.333333-127.573333 284.885333-284.885333 284.885334-155.136 0-281.301333-123.968-284.821334-278.250667l-0.085333-6.613333h-64c0 151.68 96.810667 280.746667 232 328.810666a204.714667 204.714667 0 0 0 116.906667 372.8z m0-64a140.714667 140.714667 0 1 1 0-281.450667 140.714667 140.714667 0 0 1 0 281.450667z"  horiz-adv-x="1024" />

    
    <glyph glyph-name="mail" unicode="&#59863;" d="M906.666667 629.333333v-640h-832v640h832zM585.258667 272.12800000000004L490.666667 177.53599999999994l-94.613334 94.613333L177.216 53.33333300000004h626.88L585.258667 272.14933299999996zM842.666667 529.557333l-212.138667-212.138666 212.138667-212.16v424.32z m-704 0v-424.277333l212.138666 212.117333L138.666667 529.5360000000001zM787.946667 565.333333H193.365333L490.666667 268.03200000000004 787.946667 565.333333z"  horiz-adv-x="1024" />

    
    <glyph glyph-name="gengduo1" unicode="&#58948;" d="M312-53.3c-10.2 0-20.5 3.9-28.3 11.7-15.6 15.6-15.6 40.9 0 56.6l369 369-369 369c-15.6 15.6-15.6 40.9 0 56.6 15.6 15.6 40.9 15.6 56.6 0L765.9 384 340.3-41.6c-7.8-7.8-18.1-11.7-28.3-11.7z"  horiz-adv-x="1024" />

    
    <glyph glyph-name="gengduo2" unicode="&#58950;" d="M354.3 50.7c-7.8 0-15.6 3-21.6 8.9-11.9 11.9-11.9 31.2 0 43.1L614 384 332.7 665.2c-11.9 11.9-11.9 31.2 0 43.1 11.9 11.9 31.2 11.9 43.1 0L700.2 384 375.9 59.7c-6-6-13.8-9-21.6-9zM90.5 50.7c-7.8 0-15.6 3-21.6 8.9-11.9 11.9-11.9 31.2 0 43.1L350.1 384 68.9 665.2c-11.9 11.9-11.9 31.2 0 43.1 11.9 11.9 31.2 11.9 43.1 0L436.4 384 112 59.7c-5.9-6-13.7-9-21.5-9zM618.1 50.7c-7.8 0-15.6 3-21.6 8.9-11.9 11.9-11.9 31.2 0 43.1L877.8 384 596.6 665.2c-11.9 11.9-11.9 31.2 0 43.1 11.9 11.9 31.2 11.9 43.1 0L964 384 639.7 59.7c-6-6-13.8-9-21.6-9z"  horiz-adv-x="1024" />

    
    <glyph glyph-name="gengduo3" unicode="&#58951;" d="M119.2 691.1c-22 0-39.8 17.7-40 39.7-0.1 22.1 17.6 40.1 39.7 40.3l785.6 5.1h0.3c22 0 39.8-17.7 40-39.7 0.1-22.1-17.6-40.1-39.7-40.3l-785.6-5.1h-0.3zM119.2 367.1c-22 0-39.8 17.7-40 39.7-0.1 22.1 17.6 40.1 39.7 40.3l785.6 5.1h0.3c22 0 39.8-17.7 40-39.7 0.1-22.1-17.6-40.1-39.7-40.3l-785.6-5.1h-0.3zM119.2-8.2c-22 0-39.8 17.7-40 39.7-0.1 22.1 17.6 40.1 39.7 40.3l785.6 5.1h0.3c22 0 39.8-17.7 40-39.7 0.1-22.1-17.6-40.1-39.7-40.3l-785.6-5.1h-0.3z"  horiz-adv-x="1024" />

    
    <glyph glyph-name="shoucang" unicode="&#58952;" d="M773.2-9.3L512 128 250.8-9.3l49.9 290.9-211.3 206 292 42.4L512 794.6 642.6 530l292-42.4-211.3-206 49.9-290.9zM512 218.4l155-81.5-29.6 172.6 125.4 122.2-173.3 25.2-77.5 157-77.5-157-173.3-25.2 125.4-122.2L357 136.9l155 81.5z"  horiz-adv-x="1024" />

    
    <glyph glyph-name="shoucang1" unicode="&#58953;" d="M698 769.7c11.4 0 23.6-0.6 36.7-1.9 79.3-7.7 171.1-80.4 182.2-219.6v-46.3c-10.4-133.2-111-297.5-404.9-503.7-293.9 206.2-394.5 370.5-404.9 503.7v46.3C118.3 687.4 210 760.1 289.4 767.8c13 1.3 25.2 1.9 36.7 1.9 91.7 0 135.6-39.6 186-99.6 50.2 60 94.2 99.6 185.9 99.6m0-88.6c-52.7 0-74.6-16.1-118.1-68L512 532.3l-67.9 80.8c-43.5 51.8-65.5 68-118.1 68-8.6 0-18.1-0.5-28.1-1.5-36.6-3.6-93.6-42.6-102.3-135.2v-38.8c10.9-116.3 117.2-250 316.4-398.1 199.2 148.1 305.5 281.9 316.3 398.2v38.8c-8.7 92.7-65.7 131.6-102.3 135.2-10 1-19.4 1.4-28 1.4z"  horiz-adv-x="1024" />

    
    <glyph glyph-name="xiala" unicode="&#58956;" d="M81.6 590.9c0 10.2 3.9 20.5 11.7 28.3 15.6 15.6 40.9 15.6 56.6 0l369-369 369 369c15.6 15.6 40.9 15.6 56.6 0 15.6-15.6 15.6-40.9 0-56.6L518.9 137.1 93.4 562.6c-7.9 7.9-11.8 18.1-11.8 28.3z"  horiz-adv-x="1024" />

    
    <glyph glyph-name="gengduo4" unicode="&#58964;" d="M512 144.39999999999998c-10.2 0-20.5 3.9-28.3 11.7L84.6 555.3c-15.6 15.6-15.6 40.9 0 56.6 15.6 15.6 40.9 15.6 56.6 0L512 241l370.8 370.8c15.6 15.6 40.9 15.6 56.6 0 15.6-15.6 15.6-40.9 0-56.6l-399.1-399c-7.8-7.9-18.1-11.8-28.3-11.8z"  horiz-adv-x="1024" />

    
    <glyph glyph-name="zhibo" unicode="&#58971;" d="M888.7-39.4H135.3c-22.1 0-40 17.9-40 40V589.7c0 22.1 17.9 40 40 40h753.4c22.1 0 40-17.9 40-40v-589.1c0-22.1-17.9-40-40-40z m-713.4 80h673.4V549.7H175.3v-509.1zM512.1 557.6c-10.2 0-20.5 3.9-28.3 11.7-15.6 15.6-15.6 40.9 0 56.6l169.7 169.7c15.6 15.6 40.9 15.6 56.6 0s15.6-40.9 0-56.6L540.4 569.4c-7.8-7.9-18-11.8-28.3-11.8zM511.9 557.6c-10.2 0-20.5 3.9-28.3 11.7L313.9 739.1c-15.6 15.6-15.6 40.9 0 56.6 15.6 15.6 40.9 15.6 56.6 0L540.2 626c15.6-15.6 15.6-40.9 0-56.6-7.9-7.8-18.1-11.8-28.3-11.8zM435.8 123.6c-6.9 0-13.8 1.8-20 5.4-12.4 7.1-20 20.3-20 34.6V427.5c0 14.3 7.6 27.5 20 34.6 12.4 7.1 27.6 7.1 40 0l228.5-131.9c12.4-7.1 20-20.3 20-34.6s-7.6-27.5-20-34.6L455.8 129c-6.1-3.6-13.1-5.4-20-5.4z m40 234.6v-125.3l108.5 62.6-108.5 62.7z"  horiz-adv-x="1024" />

    
    <glyph glyph-name="chuanshu" unicode="&#58973;" d="M856.2 453.3H167.1c-22.1 0-40 17.9-40 40s17.9 40 40 40h689.1c22.1 0 40-17.9 40-40s-17.9-40-40-40zM856.9 453.4c-10.6 0-21.1 4.2-29 12.4L674.4 627.1c-15.2 16-14.6 41.3 1.4 56.6 16 15.2 41.3 14.6 56.6-1.4L885.9 521c15.2-16 14.6-41.3-1.4-56.6-7.8-7.4-17.7-11-27.6-11zM856.9 234.7H167.8c-22.1 0-40 17.9-40 40s17.9 40 40 40h689.1c22.1 0 40-17.9 40-40s-17.9-40-40-40zM320.6 73.3c-10.6 0-21.1 4.2-29 12.4L138.1 247c-15.2 16-14.6 41.3 1.4 56.6 16 15.2 41.3 14.6 56.6-1.4l153.5-161.3c15.2-16 14.6-41.3-1.4-56.6-7.7-7.4-17.7-11-27.6-11z"  horiz-adv-x="1024" />

    
    </font>
</defs>
</svg>
